<?xml version="1.0" encoding="utf-8" ?><svg xmlns="http://www.w3.org/2000/svg" xmlns:xlink="http://www.w3.org/1999/xlink" width="1024" height="1024" viewBox="0 0 1024 1024"><path fill="#2A2D31" d="M221.571 94.3694C232.056 93.7428 243.1 94.3729 253.695 94.3927L316.774 94.3978L515.249 94.3965L758.27 94.4038L838.282 94.3997C851.57 94.3982 864.959 94.3368 878.253 94.4059C881.825 94.4245 885.505 95.8366 888.185 98.2063C892.784 102.274 893.47 107.532 893.52 113.393C893.635 126.887 893.548 140.451 893.547 153.953L893.548 232.869L893.555 470.461L893.566 635.412L893.573 688.674C893.572 698.512 893.771 708.439 893.39 718.261C892.947 729.698 884.634 733.103 874.686 733.161L821.949 733.017C811.251 733.005 800.127 732.724 789.515 733.691C798.352 734.841 814.439 741.24 823.981 744.378L893.853 767.155C894.611 813.785 893.508 861.03 894.027 907.704C911.165 911.349 928.278 915.111 945.365 918.991C951.425 920.374 960.041 922.002 965.754 923.593C967.229 924.66 968.719 925.706 970.225 926.729C954.945 927.534 939.257 926.844 923.946 926.969C916.381 927.03 904.446 926.389 897.405 927.969C885.666 929.603 861.387 928.854 848.635 928.826L765.859 928.798L482.64 928.811L295.152 928.924L246.404 928.95C242.155 928.957 226.572 929.199 223.51 928.611C216.047 928.755 188.319 917.768 179.791 914.74C157.773 906.853 135.707 899.099 113.596 891.478C102.558 887.618 91.4992 883.816 80.4211 880.073C73.9848 877.942 62.6123 874.633 57.0177 871.652L57.0229 758.817C57.0176 753.041 56.2649 714.96 57.4519 711.212L108.548 711.126C113.865 711.128 129.991 710.802 134.844 711.423C141.026 711.328 147.209 711.361 153.39 711.521C151.603 710.284 148.392 709.345 146.243 708.591L86.3852 687.886C70.4364 682.305 45.8434 677.11 43.0872 657.003C40.9964 641.75 41.853 623.508 41.8626 607.889L41.882 513.731L41.8819 294.767L41.867 226.146C41.8282 210.417 41.6419 194.85 42.1892 179.128C43.1775 150.736 64.7132 146.724 86.8955 139.356L134.024 123.673L191.512 104.348C199.493 101.638 214.014 96.0069 221.571 94.3694ZM309.614 912.068C308.483 912.229 308.906 912.241 307.801 911.927C307.286 910.272 307.309 888.237 307.437 885.643C307.682 880.701 306.838 841.969 308.055 840.271L309.495 840.045L310.099 839.387C306.48 838.498 303.653 839.782 303.791 843.31C304.141 852.262 302.176 908.32 304.673 912.405C306.72 914.07 308.329 913.887 310.426 912.468L309.614 912.068Z"/><path fill="#F5D3B9" d="M219.206 767.697C236.895 768.46 257.69 767.889 275.677 767.879L377.063 767.874L719.452 767.89L831.473 767.892C851.215 767.892 873.382 767.421 892.959 768.071L892.99 927.837L492.099 927.879L311.044 927.555L250.854 927.554C242.067 927.555 227.981 927.104 219.797 927.763C219.113 925.431 219.499 901.984 219.497 897.377L219.466 810.794C219.47 800.671 220.137 777.01 219.206 767.697ZM309.614 912.068C308.483 912.229 308.906 912.241 307.801 911.927C307.286 910.272 307.309 888.237 307.437 885.643C307.682 880.701 306.838 841.969 308.055 840.271L309.495 840.045L310.099 839.387C306.48 838.498 303.653 839.782 303.791 843.31C304.141 852.262 302.176 908.32 304.673 912.405C306.72 914.07 308.329 913.887 310.426 912.468L309.614 912.068Z"/><path fill="#0F0D0E" d="M590.37 835.067C607.462 834.059 633.086 834.797 650.707 834.793L763.85 834.768L825.803 834.763C829.267 834.763 833.954 834.7 837.158 834.763C861.126 835.235 865.369 830.522 864.013 858.602C863.469 869.891 864.553 884.304 863.679 895.759C863.428 899.038 860.755 901.094 858.307 902.681C852.803 903.48 834.221 902.997 827.45 902.982L766.22 902.979L650.982 902.99C631.645 902.991 612.304 903.038 592.966 902.939C587.46 903.223 585.063 898.656 585.008 893.635C584.817 876.003 584.527 857.798 585.065 840.19C586.771 837.485 587.651 836.712 590.37 835.067Z"/><path fill="#AAA1FB" d="M590.864 836.101C609.986 835.456 632.753 836.03 652.112 836.03L771.984 836.03L827.577 836.004C835.389 836.002 852.182 834.915 858.885 836.806C860.127 837.157 860.474 837.599 861.106 838.698C862.137 840.49 862.476 842.814 862.636 844.849C863.077 850.46 862.932 894.306 862.143 896.923C861.368 899.495 859.845 900.56 857.551 901.749C850.877 902.423 835.208 902.006 827.826 902.008L769.493 902.019L656.868 902.02C637.809 902.018 618.69 902.334 599.636 901.994C596.539 901.939 592.692 901.922 589.721 901.052C588.514 900.699 588.242 900.331 587.599 899.245C586.518 897.418 586.171 895.057 585.999 892.973C585.605 888.191 585.636 844.005 586.34 841.282C587.036 838.593 588.58 837.488 590.864 836.101Z"/><path fill="#2A2D31" d="M593.567 864.893C593.313 858.516 591.554 847.039 600.741 846.679C610.768 846.287 620.821 846.424 630.859 846.423L686.002 846.419C737.889 846.418 789.811 846.407 841.701 846.451C844.443 846.453 851.18 846.505 852.919 848.39C856.584 852.366 855.598 864.777 855.325 870.171C855.229 871.979 855.069 873.784 854.843 875.58C852.704 878.774 851.062 880.575 847.052 880.887C835.999 881.329 823.09 881.026 811.935 881.026L747.736 881.03C698.678 881.036 648.079 881.687 599.132 880.937C591.834 876.677 592.868 872.48 593.567 864.893Z"/><path fill="#FEAEB5" d="M593.567 864.893L594.404 866.187L757.687 866.163L805.018 866.169C816.361 866.172 845.049 863.499 850.027 876.133C849.852 878.952 849.213 878.765 846.608 879.782L847.392 880.328L847.052 880.887C835.999 881.329 823.09 881.026 811.935 881.026L747.736 881.03C698.678 881.036 648.079 881.687 599.132 880.937C591.834 876.677 592.868 872.48 593.567 864.893Z"/><path fill="#0F0D0E" d="M593.567 864.893L594.404 866.187C594.441 874.055 593.38 879.744 603.217 879.848C618.655 880.012 634.093 879.949 649.533 879.95L738.481 879.951L808.866 879.95C819.495 879.953 836.426 880.455 846.608 879.782L847.392 880.328L847.052 880.887C835.999 881.329 823.09 881.026 811.935 881.026L747.736 881.03C698.678 881.036 648.079 881.687 599.132 880.937C591.834 876.677 592.868 872.48 593.567 864.893Z"/><path fill="#0F0D0E" d="M253.935 794.554C263.108 794.117 275.017 794.433 284.371 794.43L340.416 794.425L434.988 794.433C452.221 794.436 471.343 793.782 488.43 795.32C493.975 795.819 492.58 816.756 491.74 820.298C491.279 822.24 488.51 823.919 486.804 824.831C477.929 825.31 466.28 824.98 457.11 824.979L401.5 824.97L300.829 824.974C287.509 824.973 274.16 825.01 260.867 824.972C257.082 824.567 250.805 825.706 249.219 821.023C247.142 814.889 247.686 805.33 248.72 798.954C249.041 796.976 252.277 795.251 253.935 794.554Z"/><path fill="#FDA8DB" d="M255.403 795.74C281.699 795.844 485.536 794.847 488.069 796.444C490.232 797.808 490.921 801.65 491.119 803.953C491.599 809.544 492.166 818.526 488.481 822.979C482.86 824.677 426.055 823.568 416.378 823.568L311.791 823.569C294.43 823.575 276.988 823.654 259.626 823.607C256.667 823.599 253.83 823.226 251.147 821.928C248.848 819.144 248.99 812.478 249.235 808.865C249.661 802.612 247.498 796.883 255.403 795.74Z"/><path fill="#2A2D31" d="M259.488 803.847L354.879 803.826L481.142 803.898C481.287 808.189 481.266 810.809 480.951 815.077C478.83 815.752 455.932 815.511 451.988 815.512L380.221 815.52L302.025 815.514C289.919 815.513 272.281 816.069 260.651 815.278C258.87 812.997 259.436 807.024 259.488 803.847Z"/><path fill="#2A2D31" d="M740.814 795.107C744.745 794.854 747.549 794.507 751.331 795.999C755.323 797.533 758.474 800.695 759.993 804.693C761.377 808.328 761.223 812.369 759.567 815.889C757.254 820.839 753.408 823.056 748.578 824.805C726.405 826.881 719.854 800.674 740.814 795.107Z"/><path fill="#FECD7B" d="M742.984 796.256C750.459 794.684 757.796 799.461 759.382 806.933C760.968 814.405 756.204 821.751 748.735 823.351C741.246 824.956 733.877 820.177 732.286 812.684C730.696 805.192 735.489 797.832 742.984 796.256Z"/><path fill="#0F0D0E" d="M843.267 795.141C847.435 794.846 850.275 794.518 854.239 796.357C858.107 798.117 861.054 801.425 862.357 805.469C863.557 809.235 863.204 813.324 861.377 816.829C858.949 821.445 855.116 823.518 850.319 824.89C841.746 825.456 833.239 822.495 830.929 813.298C829.995 809.555 830.586 805.593 832.572 802.285C835.113 798.073 838.722 796.314 843.267 795.141Z"/><path fill="#F9F7F7" d="M845.093 796.338C852.632 794.692 860.066 799.511 861.64 807.066C863.214 814.62 858.324 822.008 850.754 823.509C843.287 824.991 836.021 820.18 834.468 812.727C832.915 805.275 837.656 797.962 845.093 796.338Z"/><path fill="#FEAEB5" d="M792.969 795.012C798.423 794.835 802.248 794.802 806.673 798.899C809.829 801.78 811.611 805.868 811.574 810.141C811.509 818.302 805.697 823.736 797.878 824.848C793.97 825.088 790.737 824.693 787.244 822.721C783.545 820.654 780.894 817.117 779.946 812.987C779.054 809.123 779.77 805.063 781.931 801.738C784.745 797.432 788.296 796.066 792.969 795.012Z"/><defs><linearGradient id="gradient_0" gradientUnits="userSpaceOnUse" x1="798.401" y1="810.46423" x2="780.28479" y2="808.65594"><stop offset="0" stop-color="black"/><stop offset="1" stop-color="#1F2325"/></linearGradient></defs><path fill="url(#gradient_0)" d="M797.878 824.848C793.97 825.088 790.737 824.693 787.244 822.721C783.545 820.654 780.894 817.117 779.946 812.987C779.054 809.123 779.77 805.063 781.931 801.738C784.745 797.432 788.296 796.066 792.969 795.012L793.479 796.597C787.144 798.217 782.838 804.089 783.196 810.618C783.554 817.146 788.476 822.512 794.95 823.43C796.101 823.864 797.211 824.047 797.878 824.848Z"/><path fill="#0F0D0E" d="M792.969 795.012C798.423 794.835 802.248 794.802 806.673 798.899C809.829 801.78 811.611 805.868 811.574 810.141C811.509 818.302 805.697 823.736 797.878 824.848C797.211 824.047 796.101 823.864 794.95 823.43C800.433 824.208 805.846 821.608 808.665 816.841C811.484 812.074 811.155 806.078 807.832 801.648C804.508 797.217 798.844 795.224 793.479 796.597L792.969 795.012Z"/><path fill="#2A2D31" d="M361.049 838.936C362.817 839.008 362.716 838.985 364.352 839.658C366.172 842.101 365.503 851.319 365.506 854.795L365.53 880.626C365.535 890.28 365.67 901.148 365.367 910.899C365.331 912.062 363.617 913.032 362.62 913.691C360.717 913.164 360.699 913.149 358.986 912.158C358.295 911.108 358.202 910.124 358.198 908.872C358.127 886.709 357.751 864.493 358.126 842.34C358.148 841.044 360.077 839.707 361.049 838.936Z"/><path fill="#F9F7F7" d="M362.576 839.848L363.329 840.379C364.513 842.507 364.732 906.85 363.596 912.368C362.851 911.979 361.998 911.729 362.029 910.956C362.414 901.549 361.067 844.442 362.576 839.848Z"/><path fill="#2A2D31" d="M473.69 912.38C472.724 912.988 471.494 913.347 470.344 913.152C469.33 912.979 468.205 912.282 467.732 911.338C466.992 909.859 466.255 846.902 467.267 843.136C467.603 841.884 468.497 840.48 469.722 839.952C471.037 839.385 471.714 839.607 472.994 839.972C473.812 840.565 474.396 840.631 474.322 841.719C473.678 851.3 476.105 907.988 473.69 912.38Z"/><path fill="#F9F7F7" d="M472.994 839.972C473.812 840.565 474.396 840.631 474.322 841.719C473.678 851.3 476.105 907.988 473.69 912.38L473.03 911.924C471.755 911.824 472.332 912.068 471.228 911.317C471.145 910.543 470.996 909.573 471.007 908.265C471.197 886.113 470.579 863.694 471.322 841.589C471.708 841.187 472.095 840.785 472.482 840.384L472.038 840.31L472.994 839.972Z"/><path fill="#0F0D0E" d="M472.994 839.972C473.812 840.565 474.396 840.631 474.322 841.719C473.678 851.3 476.105 907.988 473.69 912.38L473.03 911.924C472.785 895.605 473.176 879.078 473.035 862.769C472.996 858.298 473.433 843.801 472.482 840.384L472.038 840.31L472.994 839.972Z"/><path fill="#F9F7F7" d="M448.862 841.972C450.236 839.513 451.981 838.452 454.756 839.505C455.082 839.96 455.408 840.415 455.733 840.869C456.198 864.255 456.114 887.939 455.8 911.323C455.785 912.477 454.28 912.973 453.68 913.254C453.224 913.219 452.323 913.181 451.917 913.081C450.483 912.833 450.566 912.74 449.454 911.748C448.405 909.074 448.151 847.201 448.862 841.972Z"/><path fill="#2A2D31" d="M448.862 841.972C448.937 843.589 448.919 846.171 449.357 847.613C449.486 845.882 449.436 844.03 450.123 842.534L451.77 843.993C452.284 842.984 452.288 842.951 452.544 841.845C452.534 849.669 452.084 909.975 452.956 911.906L451.917 913.081C450.483 912.833 450.566 912.74 449.454 911.748C448.405 909.074 448.151 847.201 448.862 841.972Z"/><path fill="#201C1E" d="M448.862 841.972C450.236 839.513 451.981 838.452 454.756 839.505C455.082 839.96 455.408 840.415 455.733 840.869C456.198 864.255 456.114 887.939 455.8 911.323C455.785 912.477 454.28 912.973 453.68 913.254C453.224 913.219 452.323 913.181 451.917 913.081L452.956 911.906L454.081 911.54C455.626 909.324 453.847 851.686 454.624 843.618C454.744 842.376 454.623 841.222 453.744 840.272L452.963 840.5L452.544 841.845C452.288 842.951 452.284 842.984 451.77 843.993L450.123 842.534C449.436 844.03 449.486 845.882 449.357 847.613C448.919 846.171 448.937 843.589 448.862 841.972Z"/><path fill="#201C1E" d="M339.727 886.14L339.554 856.482C339.501 850.973 337.582 841.046 344.019 838.509C346.52 839.005 346.919 842.481 346.94 844.633C347.136 864.586 346.949 884.552 346.98 904.507C346.984 906.81 347.104 909.518 346.849 911.759C344.877 913.234 344.019 913.544 341.701 912.658C338.317 908.929 339.695 892.218 339.727 886.14Z"/><path fill="#0F0D0E" d="M339.727 886.14C339.884 886.486 340.055 888.19 340.117 888.681L340.416 888.697C340.628 880.694 341.022 873.176 341.045 865.101C341.064 858.684 339.57 849.116 341.072 843.702L341.717 844.008C342.033 846.304 342.31 848.606 342.546 850.912L342.803 850.887L343.162 845.89C343.668 860.962 343.195 876.384 343.335 891.48C343.374 895.632 342.97 907.832 343.6 911.375L344.374 911.738L345.98 910.9L346.849 911.759C344.877 913.234 344.019 913.544 341.701 912.658C338.317 908.929 339.695 892.218 339.727 886.14Z"/><path fill="#F9F7F7" d="M343.162 845.89C343.211 843.563 342.965 842.623 344.286 840.883L345.019 840.678C345.837 843.333 345.62 852.963 345.62 856.125L345.59 892.375C345.592 896.853 345.382 907.065 345.98 910.9L344.374 911.738L343.6 911.375C342.97 907.832 343.374 895.632 343.335 891.48C343.195 876.384 343.668 860.962 343.162 845.89Z"/><path fill="#0F0D0E" d="M488.79 839.93C490.581 840.221 490.954 840.148 492.219 841.467C494.404 846.241 492.217 879.38 492.946 887.007C493.543 893.252 492.693 904.661 492.661 911.262C492.583 912.373 491.619 912.721 490.794 913.197C489.188 913.24 488.9 913.35 487.349 912.86C486.168 911.584 485.782 910.562 485.749 908.812C485.447 890.271 485.517 871.704 485.404 853.158C485.37 847.598 483.91 843.236 488.79 839.93Z"/><path fill="#F9F7F7" d="M488.79 839.93C490.581 840.221 490.954 840.148 492.219 841.467C494.404 846.241 492.217 879.38 492.946 887.007C493.543 893.252 492.693 904.661 492.661 911.262C492.583 912.373 491.619 912.721 490.794 913.197C489.188 913.24 488.9 913.35 487.349 912.86C488.353 912.042 487.993 912.318 489.337 911.924C489.529 893.547 489.23 875.119 489.26 856.738C489.268 851.42 489.099 846.151 489.446 840.841L488.79 839.93Z"/><path fill="#0F0D0E" d="M488.79 839.93C490.581 840.221 490.954 840.148 492.219 841.467C494.404 846.241 492.217 879.38 492.946 887.007C493.543 893.252 492.693 904.661 492.661 911.262C492.583 912.373 491.619 912.721 490.794 913.197C489.188 913.24 488.9 913.35 487.349 912.86C488.353 912.042 487.993 912.318 489.337 911.924C490.794 911.834 490.158 912.067 491.326 911.235C491.733 906.937 491.541 900.374 491.541 895.922L491.525 869.513C491.517 860.987 491.549 851.836 491.489 843.264C491.479 841.802 490.573 841.582 489.446 840.841L488.79 839.93Z"/><defs><linearGradient id="gradient_1" gradientUnits="userSpaceOnUse" x1="371.53818" y1="877.20093" x2="384.82635" y2="874.98816"><stop offset="0" stop-color="#000100"/><stop offset="1" stop-color="#25262C"/></linearGradient></defs><path fill="url(#gradient_1)" d="M382.699 912.167C379.989 914.111 376.529 913.213 376.524 909.814C376.493 887.337 375.834 864.705 376.391 842.255C376.474 838.896 380.204 838.817 382.725 839.173C383.18 839.857 383.523 840.574 383.454 841.412C382.763 849.766 385.118 908.365 382.699 912.167Z"/><path fill="#F9F7F7" d="M382.725 839.173C383.18 839.857 383.523 840.574 383.454 841.412C382.763 849.766 385.118 908.365 382.699 912.167L381.993 911.871C380.861 911.838 381.415 911.997 380.366 911.285C379.485 905.822 380.005 841.273 380.528 840.302L382.127 839.851L382.725 839.173Z"/><path fill="#0F0D0E" d="M382.725 839.173C383.18 839.857 383.523 840.574 383.454 841.412C382.763 849.766 385.118 908.365 382.699 912.167L381.993 911.871C382.609 888.565 382.079 863.34 382.127 839.851L382.725 839.173Z"/><path fill="#F9F7F7" d="M285.481 904.848C285.356 901.921 285.401 898.711 285.435 895.742C285.641 878.209 284.843 860.625 285.211 843.118C285.249 841.319 285.835 840.513 287.217 839.411C289.202 838.765 289.553 838.935 291.702 839.203C293.176 841.64 292.469 860.2 292.445 864.466C292.361 879.901 292.977 895.512 292.296 910.904C292.256 911.749 291.664 912.12 291.118 912.725C284.55 915.331 285.291 908.747 285.481 904.848Z"/><defs><linearGradient id="gradient_2" gradientUnits="userSpaceOnUse" x1="271.81998" y1="884.77832" x2="303.22559" y2="867.19617"><stop offset="0" stop-color="black"/><stop offset="1" stop-color="#212724"/></linearGradient></defs><path fill="url(#gradient_2)" d="M285.481 904.848C285.356 901.921 285.401 898.711 285.435 895.742C285.641 878.209 284.843 860.625 285.211 843.118C285.249 841.319 285.835 840.513 287.217 839.411C289.202 838.765 289.553 838.935 291.702 839.203L291.163 839.876L289.461 840.247C288.874 841.179 288.593 906.896 289.11 912.408C288.492 912.323 287.922 912.011 287.308 911.755C285.923 909.962 285.917 907.32 285.481 904.848Z"/><path fill="#0F0D0E" d="M291.702 839.203C293.176 841.64 292.469 860.2 292.445 864.466C292.361 879.901 292.977 895.512 292.296 910.904C292.256 911.749 291.664 912.12 291.118 912.725C284.55 915.331 285.291 908.747 285.481 904.848C285.917 907.32 285.923 909.962 287.308 911.755C287.922 912.011 288.492 912.323 289.11 912.408C289.557 912.241 290.57 911.863 290.592 911.529C291.594 896.636 290.897 852.352 291.163 839.876L291.702 839.203Z"/><path fill="#0F0D0E" d="M436.749 913.049C433.92 913.671 432.851 913.178 431.234 910.987C430.357 905.804 430.935 889.624 430.882 883.005C431.023 869.569 429.896 855.921 430.965 842.53C431.213 839.428 434.795 838.894 437.238 839.505C439.975 845.336 436.802 892.387 438.028 901.877C438.307 904.035 438.219 911.455 436.749 913.049Z"/><path fill="#F9F7F7" d="M437.238 839.505C439.975 845.336 436.802 892.387 438.028 901.877C438.307 904.035 438.219 911.455 436.749 913.049L436.524 912.378C435.322 911.913 435.68 912.107 434.676 911.365C434.258 905.601 434.243 842.659 435.02 840.833L436.533 840.511L437.238 839.505Z"/><path fill="#2A2D31" d="M437.238 839.505C439.975 845.336 436.802 892.387 438.028 901.877C438.307 904.035 438.219 911.455 436.749 913.049L436.524 912.378C437.255 909.816 437.356 843.347 436.533 840.511L437.238 839.505Z"/><path fill="#2A2D31" d="M396.696 838.961C398.598 838.911 399.334 838.721 401.014 839.627C403.673 843.965 401.084 900.028 401.976 909.709C402.167 911.78 401.03 912.437 399.676 913.701C397.302 913.02 395.073 912.353 395.039 909.398C394.87 891.922 394.97 874.447 394.64 856.968C394.55 852.189 393.731 842.641 396.696 838.961Z"/><path fill="#F9F7F7" d="M398.915 839.706L400.05 840.404C401.33 843.083 401.244 903.924 400.634 911.799L399.222 911.693L398.698 910.942C397.935 896.754 398.878 880.139 398.522 865.72C398.419 861.536 398.33 842.872 398.915 839.706Z"/><path fill="#2A2D31" d="M268.985 913.187C268.464 912.707 267.773 911.931 267.263 911.397C266.624 908.552 266.289 844.152 267.044 841.631C267.41 840.407 268.165 839.744 269.333 839.267C270.737 838.694 272.062 839.057 273.41 839.537C274.264 842.589 274.045 849.761 274.004 853.233C273.774 872.601 274.55 892.154 273.654 911.46C273.56 913.49 270.319 913.368 268.985 913.187Z"/><path fill="#F9F7F7" d="M273.41 839.537C274.264 842.589 274.045 849.761 274.004 853.233C273.774 872.601 274.55 892.154 273.654 911.46C273.56 913.49 270.319 913.368 268.985 913.187C269.388 912.871 270.584 912.344 271.029 912.128C270.1 908.264 270.27 842.081 271.135 840.315L272.646 840.032L273.41 839.537Z"/><path fill="#201C1E" d="M273.41 839.537C274.264 842.589 274.045 849.761 274.004 853.233C273.774 872.601 274.55 892.154 273.654 911.46C273.56 913.49 270.319 913.368 268.985 913.187C269.388 912.871 270.584 912.344 271.029 912.128L272.209 911.439C273.492 909.036 272.686 847.866 272.646 840.032L273.41 839.537Z"/><path fill="#2A2D31" d="M419.142 912.634C417.779 913.487 417.154 913.592 415.54 913.366C414.741 913.254 413.463 912.419 413.403 911.494C412.578 898.786 413.148 884.496 412.975 871.857C413.007 863.146 412.499 854.45 412.675 845.738C412.78 840.529 413.496 839.826 418.611 838.982C419.517 840.197 420.078 841.028 419.949 842.627C419.25 851.282 421.482 909.056 419.142 912.634Z"/><path fill="#F9F7F7" d="M418.611 838.982C419.517 840.197 420.078 841.028 419.949 842.627C419.25 851.282 421.482 909.056 419.142 912.634L418.518 911.993L417.221 911.566C416.43 909.788 416.667 842.958 417.418 840.373L418.611 838.982Z"/><path fill="#201C1E" d="M418.611 838.982C419.517 840.197 420.078 841.028 419.949 842.627C419.25 851.282 421.482 909.056 419.142 912.634L418.518 911.993C419.197 909.941 419.435 845.162 418.581 841.029L417.418 840.373L418.611 838.982Z"/><path fill="#F9F7F7" d="M321.913 847.268C321.759 843.684 322.146 839.292 326.469 838.217C329.841 840.707 329.118 849.814 329.012 854.073C328.814 862.065 329.395 872.076 329.023 879.767C328.791 884.581 329.765 908.792 328.573 911.74L327.27 912.881C325.121 913.229 324.387 913.172 322.688 911.871C321.493 908.863 321.72 853.736 321.913 847.268Z"/><path fill="#2A2D31" d="M321.913 847.268C323.041 845.936 323.002 845.477 323.325 843.777L323.423 843.232C324.13 844.538 324.742 845.519 325.533 846.756C325.672 853.829 325.197 909.29 326.077 911.225L327.035 911.557C327.095 912.084 327.075 912.418 327.27 912.881C325.121 913.229 324.387 913.172 322.688 911.871C321.493 908.863 321.72 853.736 321.913 847.268Z"/><path fill="#201C1E" d="M321.913 847.268C321.759 843.684 322.146 839.292 326.469 838.217C329.841 840.707 329.118 849.814 329.012 854.073C328.814 862.065 329.395 872.076 329.023 879.767C328.791 884.581 329.765 908.792 328.573 911.74L327.27 912.881C327.075 912.418 327.095 912.084 327.035 911.557C329.256 908.482 327.084 856.749 327.996 849.908C328.242 848.065 328.227 841.291 326.763 839.962C325.043 841.571 325.467 844.555 325.533 846.756C324.742 845.519 324.13 844.538 323.423 843.232L323.325 843.777C323.002 845.477 323.041 845.936 321.913 847.268Z"/><path fill="#2A2D31" d="M255.38 912.511C254.477 912.811 253.465 913.123 252.494 913.047C251.359 912.958 250.539 912.355 249.929 911.425C248.477 909.212 248.383 848.441 249.331 842.826C249.535 841.623 250.097 840.509 251.247 839.945C252.698 839.234 253.834 839.497 255.314 839.883C257.577 843.905 255.256 901.674 255.858 911.17C255.867 911.314 255.486 912.299 255.38 912.511Z"/><path fill="#F9F7F7" d="M255.314 839.883C257.577 843.905 255.256 901.674 255.858 911.17C255.867 911.314 255.486 912.299 255.38 912.511L254.644 912.007C253.833 911.837 253.894 911.801 253.134 911.439C252.634 909.311 252.824 842.394 253.261 840.905L254.673 840.434L255.314 839.883Z"/><path fill="#201C1E" d="M255.314 839.883C257.577 843.905 255.256 901.674 255.858 911.17C255.867 911.314 255.486 912.299 255.38 912.511L254.644 912.007C255.308 907.532 255.166 883.677 255.012 878.158C254.753 868.856 255.652 848.837 254.673 840.434L255.314 839.883Z"/><defs><linearGradient id="gradient_3" gradientUnits="userSpaceOnUse" x1="300.4339" y1="876.76117" x2="310.72067" y2="875.52148"><stop offset="0" stop-color="#000100" stop-opacity="0.98823529"/><stop offset="1" stop-color="#1A1B22"/></linearGradient></defs><path fill="url(#gradient_3)" d="M310.426 912.468C308.329 913.887 306.72 914.07 304.673 912.405C302.176 908.32 304.141 852.262 303.791 843.31C303.653 839.782 306.48 838.498 310.099 839.387L309.495 840.045L308.055 840.271C306.838 841.969 307.682 880.701 307.437 885.643C307.309 888.237 307.286 910.272 307.801 911.927C308.906 912.241 308.483 912.229 309.614 912.068L310.426 912.468Z"/><path fill="#F9F7F7" d="M310.099 839.387C311.273 841.859 311.547 909.413 310.426 912.468L309.614 912.068C308.483 912.229 308.906 912.241 307.801 911.927C307.286 910.272 307.309 888.237 307.437 885.643C307.682 880.701 306.838 841.969 308.055 840.271L309.495 840.045L310.099 839.387Z"/><path fill="#201C1E" d="M310.099 839.387C311.273 841.859 311.547 909.413 310.426 912.468L309.614 912.068C308.88 889.207 309.497 863.12 309.495 840.045L310.099 839.387Z"/><path fill="#AAA1FB" d="M146.243 708.591L86.3852 687.886C70.4364 682.305 45.8434 677.11 43.0872 657.003C40.9964 641.75 41.853 623.508 41.8626 607.889L41.882 513.731L41.8819 294.767L41.867 226.146C41.8282 210.417 41.6419 194.85 42.1892 179.128C43.1775 150.736 64.7132 146.724 86.8955 139.356L134.024 123.673L191.512 104.348C199.493 101.638 214.014 96.0069 221.571 94.3694L221.831 95.6122L222.042 96.2505C219.083 101.972 219.078 102.835 219.039 109.411C218.932 127.224 218.981 145.072 218.982 162.885L218.99 264.286L219.01 567.613L219.005 677.576C219.007 691.868 218.341 712.838 219.891 727.282C220.091 729.144 222.609 731.879 224.064 733.232C200.037 728.141 170.544 715.57 146.491 707.552L146.243 708.591Z"/><path fill="#0F0D0E" d="M146.243 708.591L86.3852 687.886C70.4364 682.305 45.8434 677.11 43.0872 657.003C40.9964 641.75 41.853 623.508 41.8626 607.889L41.882 513.731L41.8819 294.767L41.867 226.146C41.8282 210.417 41.6419 194.85 42.1892 179.128C43.1775 150.736 64.7132 146.724 86.8955 139.356L134.024 123.673L191.512 104.348C199.493 101.638 214.014 96.0069 221.571 94.3694L221.831 95.6122C216.603 96.7086 203.253 101.598 197.695 103.505L154.223 118.226L93.4646 138.52C88.2797 140.248 83.04 141.939 77.8956 143.717C70.0364 146.434 62.1451 148.367 55.4155 153.431C46.7182 159.976 43.62 170.407 43.351 180.86C42.8241 195.847 42.9787 210.838 43.005 225.839L43.0362 292.936L43.0048 507.974L43.0254 604.623L42.9684 632.495C42.9611 638.526 42.8873 644.632 43.288 650.665C45.0141 676.648 66.9787 679.992 87.8441 687.277C107.35 694.159 126.899 700.917 146.491 707.552L146.243 708.591Z"/><path fill="#2A2D31" d="M103.797 497.866L111.583 497.91L111.453 613.503L111.44 649.746C111.437 655.965 111.658 664.297 111.239 670.327C108.259 673.047 102.754 669.477 100.038 667.656C99.5223 630.432 99.9967 592.001 99.9923 554.693L99.9923 517.461C99.993 512.741 99.7163 502.845 100.197 498.781C101.441 497.61 101.556 498.009 103.797 497.866Z"/><path fill="#F9F7F7" d="M100.038 667.656C99.5223 630.432 99.9967 592.001 99.9923 554.693L99.9923 517.461C99.993 512.741 99.7163 502.845 100.197 498.781C101.441 497.61 101.556 498.009 103.797 497.866L103.572 498.541C104.24 502.687 103.981 513.256 103.973 517.851L103.914 552.808C103.905 588.284 104.691 626.431 103.863 661.671C103.927 664.329 103.534 663.954 104.72 665.939C107.266 667.262 109.578 667.166 110.451 670.047L111.239 670.327C108.259 673.047 102.754 669.477 100.038 667.656Z"/><path fill="#201C1E" d="M100.038 667.656C99.5223 630.432 99.9967 592.001 99.9923 554.693L99.9923 517.461C99.993 512.741 99.7163 502.845 100.197 498.781C101.441 497.61 101.556 498.009 103.797 497.866L103.572 498.541L101.49 499.072C100.65 500.758 101.437 649.009 100.97 664.533L103.04 664.885C104.039 663.951 103.712 663.505 103.863 661.671C103.927 664.329 103.534 663.954 104.72 665.939C107.266 667.262 109.578 667.166 110.451 670.047L111.239 670.327C108.259 673.047 102.754 669.477 100.038 667.656Z"/><path fill="#FECD7B" d="M100.97 664.533L103.04 664.885C104.039 663.951 103.712 663.505 103.863 661.671C103.927 664.329 103.534 663.954 104.72 665.939C107.266 667.262 109.578 667.166 110.451 670.047C106.379 669.757 101.613 669.103 100.97 664.533Z"/><path fill="#2A2D31" d="M88.9468 498.048C91.331 497.962 91.7222 497.517 93.3105 498.564C93.9092 500.609 93.7096 504.294 93.692 506.559C93.2919 557.972 94.1916 609.551 93.5158 660.945C93.5109 661.929 93.4607 662.875 93.4174 663.856C90.4983 667.257 83.0971 664.709 82.764 660.179C82.3 653.867 82.5181 647.489 82.5524 641.154L82.6537 606.912L82.6549 537.75C82.6513 532.508 81.9714 500.852 83.618 498.668C85.3144 497.756 87 498.008 88.9468 498.048Z"/><path fill="#F9F7F7" d="M93.5158 660.945C93.5109 661.929 93.4607 662.875 93.4174 663.856C90.4983 667.257 83.0971 664.709 82.764 660.179C82.3 653.867 82.5181 647.489 82.5524 641.154L82.6537 606.912L82.6549 537.75C82.6513 532.508 81.9714 500.852 83.618 498.668C85.3144 497.756 87 498.008 88.9468 498.048L87.3525 499.212L87.4681 499.82C86.5211 501.013 86.3544 502.007 86.3622 503.502C86.4297 516.397 86.4335 529.292 86.435 542.188L86.4521 623.437C86.4566 630.026 86.9671 655.478 85.5894 660.195C88.1583 660.569 91.2433 660.575 92.0938 663.5L93.5158 660.945Z"/><path fill="#0F0D0E" d="M93.5158 660.945C93.5109 661.929 93.4607 662.875 93.4174 663.856C90.4983 667.257 83.0971 664.709 82.764 660.179C82.3 653.867 82.5181 647.489 82.5524 641.154L82.6537 606.912L82.6549 537.75C82.6513 532.508 81.9714 500.852 83.618 498.668C85.3144 497.756 87 498.008 88.9468 498.048L87.3525 499.212C85.1562 499.549 85.0672 499.153 84.0567 500.424C83.5886 513.066 83.963 528.195 83.969 541.077L83.9849 617.159C83.9837 628.012 84.663 651.159 83.6808 661.022L85.5894 660.195C88.1583 660.569 91.2433 660.575 92.0938 663.5L93.5158 660.945Z"/><path fill="#FECD7B" d="M83.6808 661.022L85.5894 660.195C88.1583 660.569 91.2433 660.575 92.0938 663.5C89.8563 664.616 85.3138 662.954 83.6808 661.022Z"/><path fill="#2A2D31" d="M65.6044 498.19C69.3718 497.904 72.2482 497.681 76.0127 497.772L75.9406 607.691L75.9768 641.282C75.9811 645.78 76.225 654.866 75.7252 658.956C71.7696 661.279 65.1093 659.283 65.0912 654.362C64.9042 603.458 65.0441 552.431 64.9917 501.484C64.9903 500.089 64.895 499.44 65.6044 498.19Z"/><path fill="#F9F7F7" d="M75.7252 658.956C71.7696 661.279 65.1093 659.283 65.0912 654.362C64.9042 603.458 65.0441 552.431 64.9917 501.484C64.9903 500.089 64.895 499.44 65.6044 498.19L65.987 498.668C66.6965 498.872 67.7281 498.884 68.067 499.602C68.5945 500.719 69.6317 647.467 68.2468 655.301C71.8159 654.908 73.3656 654.702 75.1356 658.175L75.7252 658.956Z"/><path fill="#201C1E" d="M75.7252 658.956C71.7696 661.279 65.1093 659.283 65.0912 654.362C64.9042 603.458 65.0441 552.431 64.9917 501.484C64.9903 500.089 64.895 499.44 65.6044 498.19L65.987 498.668L66.0482 602.745L66.0522 636.695C66.0504 642.288 66.246 649.929 65.8887 655.347L68.2468 655.301C71.8159 654.908 73.3656 654.702 75.1356 658.175L75.7252 658.956Z"/><path fill="#FECD7B" d="M68.2468 655.301C71.8159 654.908 73.3656 654.702 75.1356 658.175C71.4825 658.126 67.73 658.863 65.8887 655.347L68.2468 655.301Z"/><path fill="#AAA1FB" d="M57.4519 711.212C57.869 721.817 57.44 734.493 57.4291 745.306L57.4717 811.767C57.4765 815.857 57.143 836.484 57.8765 838.582C58.5324 827.242 57.935 807.895 57.9373 796.119L57.8851 712.857C69.6511 716.432 83.7788 721.862 95.6107 725.952L162.096 748.452L200.315 761.191C205.65 762.959 211.761 764.72 216.937 766.854C218.236 767.39 218.046 767.725 218.378 768.903C218.741 767.789 218.394 768.131 219.206 767.697C220.137 777.01 219.47 800.671 219.466 810.794L219.497 897.377C219.499 901.984 219.113 925.431 219.797 927.763L223.51 928.611C216.047 928.755 188.319 917.768 179.791 914.74C157.773 906.853 135.707 899.099 113.596 891.478C102.558 887.618 91.4992 883.816 80.4211 880.073C73.9848 877.942 62.6123 874.633 57.0177 871.652L57.0229 758.817C57.0176 753.041 56.2649 714.96 57.4519 711.212Z"/><path fill="#0F0D0E" d="M57.4519 711.212C57.869 721.817 57.44 734.493 57.4291 745.306L57.4717 811.767C57.4765 815.857 57.143 836.484 57.8765 838.582C58.2099 848.946 57.8083 860.292 57.9761 870.861C62.5676 873.37 75.0664 877.209 80.6303 879.1L120.322 892.765C141.196 899.966 162.032 907.276 182.829 914.695C193.965 918.649 207.065 923.723 218.16 927.051C217.424 894.744 218.094 859.955 218.072 827.447L218.041 790.631C218.038 784.419 217.756 774.785 218.378 768.903C218.741 767.789 218.394 768.131 219.206 767.697C220.137 777.01 219.47 800.671 219.466 810.794L219.497 897.377C219.499 901.984 219.113 925.431 219.797 927.763L223.51 928.611C216.047 928.755 188.319 917.768 179.791 914.74C157.773 906.853 135.707 899.099 113.596 891.478C102.558 887.618 91.4992 883.816 80.4211 880.073C73.9848 877.942 62.6123 874.633 57.0177 871.652L57.0229 758.817C57.0176 753.041 56.2649 714.96 57.4519 711.212Z"/><path fill="#0F0D0E" d="M134.844 711.423C141.026 711.328 147.209 711.361 153.39 711.521L152.97 712.461C149.045 713.678 138.365 713.475 134.844 711.423Z"/><path fill="#F5D3B9" d="M237.54 102.582C256.228 101.97 276.879 102.338 295.692 102.334L398.527 102.331L707.757 102.336L829.722 102.354C842.754 102.353 855.937 102.442 868.962 102.326C881.994 102.21 885.542 107.439 885.554 120.119C885.595 161.627 885.569 203.141 885.569 244.652L885.567 490.678L885.581 636.197L885.592 684.351C885.593 692.67 886.344 707.134 884.483 715.361C883.548 719.492 878.055 723.059 873.955 724.666C869.249 725.433 860.786 725.237 855.828 725.233L828.519 725.197L730.188 725.24L403.678 725.23L295.538 725.236C276.491 725.237 257.19 725.867 238.164 725.09C235.797 724.993 233.768 724.667 231.619 723.622C230.286 722.974 228.958 722.188 228.492 720.704C225.648 711.666 226.982 680.373 226.977 668.8L226.961 592.33L226.961 242.448L226.968 154.835L226.94 128.486C226.895 117.006 223.897 105.706 237.54 102.582Z"/><path fill="#0F0D0E" d="M263.136 136.184C295.065 135.323 330.266 136.017 362.473 136.017L548.916 136.018L743.689 136.014C777.033 136.005 810.448 135.941 843.793 136.052C846.916 136.062 849.445 135.855 851.847 137.714C852.859 142.58 852.499 165.062 852.502 171.71L852.509 244.367L852.492 525.199C852.492 538.736 853.439 637.555 852.048 640.991C851.559 642.2 850.501 642.336 849.403 642.769C842.193 643.185 831.407 642.882 823.929 642.881L776.835 642.875L630.686 642.85L385.093 642.852C346.75 642.846 308.364 642.849 270.021 642.917C266.99 642.922 262.791 643.046 260.481 641.29C259.477 637.046 259.786 617.291 259.785 611.82L259.784 549.438L259.775 292.454L259.773 184.552L259.735 155.908C259.732 151.346 259.481 142.186 260.305 138.198C261.69 136.424 260.846 137.153 263.136 136.184Z"/><path fill="#322F79" d="M261.477 137.121L661.001 137.114L786.421 137.107L825.037 137.099C833.017 137.091 842.7 136.838 850.532 137.428C844.58 142.519 838.13 147.335 832.447 152.718L833.074 153.078C838.676 149.194 845.741 142.979 851.017 138.478L851.13 448.021L851.121 573.787C851.117 595.962 851.443 619.13 851.012 641.243C845.331 636.09 837.421 628.9 831.417 624.394L830.938 625.167C836.111 629.737 844.717 637.505 850.107 641.546L459.945 641.539C394.178 641.538 327.004 640.807 261.344 641.569C268.185 636.63 274.208 630.457 280.462 625.875L279.864 624.87C273.512 629.934 267.157 635.59 260.99 640.927L261.079 138.05C267.371 143.732 273.625 149.457 279.841 155.223L280.388 154.778C278.942 151.962 264.851 140.052 261.477 137.121Z"/><path fill="#AAA1FB" d="M833.074 153.078C838.676 149.194 845.741 142.979 851.017 138.478L851.13 448.021L851.121 573.787C851.117 595.962 851.443 619.13 851.012 641.243C845.331 636.09 837.421 628.9 831.417 624.394C833.697 616.319 834.552 600.547 835.057 591.585C836.595 564.34 837.315 536.662 837.866 509.381C839.536 435.17 839.823 360.934 838.726 286.712C837.965 241.894 837.41 198.463 833.141 153.818L833.074 153.078Z"/><path fill="#AAA1FB" d="M261.079 138.05C267.371 143.732 273.625 149.457 279.841 155.223C276.692 160.926 275.813 199.445 275.482 208.504C271.612 328.009 271.827 447.611 276.128 567.102L277.346 601.149C277.574 606.589 277.697 620.422 279.864 624.87C273.512 629.934 267.157 635.59 260.99 640.927L261.079 138.05Z"/><path fill="#AAA1FB" d="M261.477 137.121L661.001 137.114L786.421 137.107L825.037 137.099C833.017 137.091 842.7 136.838 850.532 137.428C844.58 142.519 838.13 147.335 832.447 152.718C821.62 150.091 802.874 150.456 791.059 150.169L732.834 148.591C595.241 143.616 457.496 144.608 319.989 151.566C314.056 151.88 283.957 152.457 280.388 154.778C278.942 151.962 264.851 140.052 261.477 137.121Z"/><path fill="#AAA1FB" d="M280.462 625.875L328.321 628.225C377.613 630.28 426.925 631.844 476.248 632.916C556.946 634.064 637.66 633.277 718.32 630.557L787.118 628.183C797.48 627.829 818.285 627.722 827.962 625.759L830.938 625.167C836.111 629.737 844.717 637.505 850.107 641.546L459.945 641.539C394.178 641.538 327.004 640.807 261.344 641.569C268.185 636.63 274.208 630.457 280.462 625.875Z"/><path fill="#FEAEB5" d="M620.051 256.901C620.035 255.205 619.777 253.684 620.65 252.325C624.001 251.721 633.63 252.004 637.511 252.012L670.944 252.111L671.004 262.52C673.505 262.511 678.56 262.304 680.756 262.924C680.341 268.025 680.502 273.752 680.524 278.915C680.532 281.524 680.894 295.625 679.98 296.895C677.169 297.806 677.262 297.54 676.948 300.721C673.272 304.871 672.095 297.459 671.39 307.01L671.422 308.713C673.277 310.218 678.386 309.364 681.068 309.427C681.091 318.105 681.725 337.754 680.968 345.662C679.852 346.735 680.513 346.326 678.715 346.51C678.045 347.655 677.825 349.415 676.499 350.553C673.141 353.435 664.006 351.81 659.511 351.398C659.375 341.879 659.561 332.014 659.617 322.47L649.051 322.386L649.161 312.978L637.524 312.698C637.478 323.164 637.96 336.102 637.386 346.323L635.171 346.66L633.317 351.939C627.018 352.214 619.864 352.048 613.495 352.02C613.329 323.767 614.939 295.276 614.635 266.982C614.603 264.015 614.864 260.345 615.249 257.431C616.68 256.669 618.36 256.895 620.051 256.901Z"/><path fill="#354DB1" d="M620.051 256.901C619.962 286.739 619.707 316.576 619.287 346.41C622.989 346.429 631.9 346.261 635.171 346.66L633.317 351.939C627.018 352.214 619.864 352.048 613.495 352.02C613.329 323.767 614.939 295.276 614.635 266.982C614.603 264.015 614.864 260.345 615.249 257.431C616.68 256.669 618.36 256.895 620.051 256.901Z"/><path fill="#354DB1" d="M637.213 307.106C642.383 307.144 648.964 307.029 654.012 307.305L653.953 316.999L665.024 317.011C665.035 326.731 664.922 336.45 664.682 346.167C667.914 346.157 675.906 345.954 678.715 346.51C678.045 347.655 677.825 349.415 676.499 350.553C673.141 353.435 664.006 351.81 659.511 351.398C659.375 341.879 659.561 332.014 659.617 322.47L649.051 322.386L649.161 312.978L637.524 312.698C637.478 323.164 637.96 336.102 637.386 346.323C636.677 334.485 637.125 319.2 637.213 307.106Z"/><path fill="#354DB1" d="M671.343 297.009C674.297 297.065 677.031 296.987 679.98 296.895C677.169 297.806 677.262 297.54 676.948 300.721C673.272 304.871 672.095 297.459 671.39 307.01C671.113 304.405 671.304 299.77 671.343 297.009Z"/><path fill="#322F79" d="M637.184 272.182C646.284 272.196 655.383 272.273 664.481 272.412L664.318 290.928L645.237 290.829L637.267 290.878C636.93 284.945 637.137 278.181 637.184 272.182Z"/><path fill="#354DB1" d="M637.184 272.182C646.284 272.196 655.383 272.273 664.481 272.412L664.318 290.928L645.237 290.829C648.724 290.312 655.574 290.484 659.341 290.476L659.26 278.412C652.136 278.356 644.617 278.41 637.535 278.09C637.545 282.412 637.609 286.56 637.267 290.878C636.93 284.945 637.137 278.181 637.184 272.182Z"/><path fill="#FEAEB5" d="M558.25 252.116L588.491 252.063L589.028 263.004L597.123 262.986L597.039 273.435L605.081 273.303L605.632 325.717C605.66 329.342 606.071 343.564 605.75 346.043C603.425 347.31 603.022 348.854 601.425 351.358L584.543 351.511C584.533 342.244 584.593 332.978 584.723 323.712C577.384 323.583 566.837 323.79 559.905 322.989C559.848 326.888 560.148 343.047 558.888 345.216L557.036 345.551C556.048 347.197 555.179 349.237 554.353 351.001C548.543 351.094 543.031 351.011 537.241 350.414C537.425 342.585 537.099 280.027 539.25 277.033C540.55 276.85 541.466 277.276 542.734 277.667L543.395 276.463C543.5 273.857 543.058 273.982 544.355 272.351C546.123 271.89 547.967 272.198 549.812 272.357C549.674 269.262 549.473 266.001 549.474 262.922L558.207 262.883L558.25 252.116Z"/><path fill="#354DB1" d="M543.395 276.463C543.481 299.284 542.709 322.306 542.972 345.155C546.106 345.135 554.373 344.911 557.036 345.551C556.048 347.197 555.179 349.237 554.353 351.001C548.543 351.094 543.031 351.011 537.241 350.414C537.425 342.585 537.099 280.027 539.25 277.033C540.55 276.85 541.466 277.276 542.734 277.667L543.395 276.463Z"/><path fill="#354DB1" d="M559.978 317.945L590.301 318.001C590.234 327.274 589.984 336.737 590.009 345.981C593.798 346.017 602.32 346.312 605.75 346.043C603.425 347.31 603.022 348.854 601.425 351.358L584.543 351.511C584.533 342.244 584.593 332.978 584.723 323.712C577.384 323.583 566.837 323.79 559.905 322.989L559.978 317.945Z"/><path fill="#322F79" d="M565.934 272.137C571.688 272.153 578.332 272.015 584.009 272.367L583.864 283.613C585.672 283.578 587.627 283.341 589.265 283.858C589.596 287.618 589.656 296.553 589.191 300.226C587.277 300.773 586.388 300.613 584.358 300.545L558.918 300.403C558.538 294.999 558.472 288.924 558.303 283.455L565.525 283.448L565.735 278.033L565.934 272.137Z"/><path fill="#354DB1" d="M565.934 272.137C571.688 272.153 578.332 272.015 584.009 272.367L583.864 283.613C585.672 283.578 587.627 283.341 589.265 283.858C589.596 287.618 589.656 296.553 589.191 300.226C587.277 300.773 586.388 300.613 584.358 300.545C584.254 298.032 584.227 291.335 583.451 289.328C581.678 288.026 582.472 288.375 580.067 288.304C578.121 286.297 578.614 281.188 578.564 278.12L565.735 278.033L565.934 272.137Z"/><path fill="#FEAEB5" d="M411.895 252.036C425.868 252.053 440.121 251.918 454.069 252.1L454.051 262.56C457.812 262.666 461.271 262.74 465.029 262.657C464.95 265.943 464.804 281.072 463.918 283.288L463.27 283.669C461.428 283.961 460.64 283.6 459.599 285.211C457.192 288.94 454.784 288.998 450.832 289.05C448.828 288.87 444.228 289.047 442.023 289.077L442.042 278.257L418.495 278.033C418.507 281.439 418.547 283.878 418.135 287.263C418.113 289.377 417.764 289.26 418.735 290.666C422.761 291.091 430.557 290.768 434.805 290.687C440.665 290.575 448.332 290.698 454.083 290.12L454.16 299.679L463.974 299.6C463.976 304.372 464.772 333.587 462.731 335.77L461.418 336.111L460.176 336.728C458.919 340.509 458.594 341.266 454.784 342.521C453.183 344.119 452.94 344.269 450.853 345.146C450.161 346.483 449.204 349.008 448.589 350.482C444.418 351.155 436.55 350.986 432.056 351L405.924 351.051L405.993 342.516L394.922 342.703L395.007 322.778C396.842 322.455 398.729 322.174 400.573 321.876C400.587 320.155 400.358 318.652 401.259 317.273C405.187 316.794 414.085 317.274 418.376 317.388L418.256 327.515C425.924 327.51 434.847 327.277 442.411 327.552C441.819 324.874 441.609 317.586 441.445 314.527C427.217 314.493 419.306 314.218 405.273 312.882L405.137 304.467L396.246 304.34C396.396 292.486 396.168 279.498 396.934 267.787C398.234 267.612 400.142 267.511 401.496 267.401C401.505 264.709 401.063 264.792 402.294 262.956C404.563 261.877 408.59 262.445 411.484 262.498C411.59 259.12 411.63 255.371 411.895 252.036Z"/><path fill="#354DB1" d="M401.496 267.401C401.503 277.956 401.372 288.511 401.103 299.063L410.898 299.04L410.886 308.962L446.381 308.864C446.424 311.764 447.087 325.857 445.774 327.331C444.485 327.465 443.718 327.556 442.411 327.552C441.819 324.874 441.609 317.586 441.445 314.527C427.217 314.493 419.306 314.218 405.273 312.882L405.137 304.467L396.246 304.34C396.396 292.486 396.168 279.498 396.934 267.787C398.234 267.612 400.142 267.511 401.496 267.401Z"/><path fill="#354DB1" d="M400.573 321.876L400.622 336.976L411.6 336.86L411.632 345.384C423.777 345.325 438.961 345.68 450.853 345.146C450.161 346.483 449.204 349.008 448.589 350.482C444.418 351.155 436.55 350.986 432.056 351L405.924 351.051L405.993 342.516L394.922 342.703L395.007 322.778C396.842 322.455 398.729 322.174 400.573 321.876Z"/><path fill="#354DB1" d="M418.098 272.047L446.98 272.082L446.854 283.557L463.27 283.669C461.428 283.961 460.64 283.6 459.599 285.211C457.192 288.94 454.784 288.998 450.832 289.05C448.828 288.87 444.228 289.047 442.023 289.077L442.042 278.257L418.495 278.033C418.507 281.439 418.547 283.878 418.135 287.263C418.014 282.385 418.107 276.963 418.098 272.047Z"/><path fill="#354DB1" d="M454.614 336.19L461.418 336.111L460.176 336.728C458.919 340.509 458.594 341.266 454.784 342.521L454.614 336.19Z"/><path fill="#FEAEB5" d="M687.693 251.996C708.522 252.097 729.782 252.482 750.553 252.376C750.487 258.537 750.632 266.718 750.238 272.71L747.707 273.167C746.568 275.128 748.159 277.647 744.621 278.145C740.538 278.72 733.077 278.567 728.965 278.315C728.929 285.306 729.321 343.93 728.609 345.953C725.537 346.811 724.861 349.466 722.948 352.11C716.999 352.174 710.84 352.058 704.873 352.023C704.683 327.503 705.553 302.962 705.414 278.361L695.523 278.316C690.872 278.375 684.866 277.842 680.524 278.915C680.502 273.752 680.341 268.025 680.756 262.924L682.143 261.437C682.841 259.253 681.402 257.958 683.812 256.209C685.076 256.343 685.33 256.345 686.599 256.261C687.906 254.591 687.481 254.563 687.693 251.996Z"/><path fill="#354DB1" d="M682.143 261.437C682.841 259.253 681.402 257.958 683.812 256.209C685.076 256.343 685.33 256.345 686.599 256.261C687.906 254.591 687.481 254.563 687.693 251.996C687.964 258.744 687.91 265.566 687.926 272.324L711.273 272.53C711.223 296.846 711.226 321.897 710.807 346.171C715.619 346.161 724.036 346.356 728.609 345.953C725.537 346.811 724.861 349.466 722.948 352.11C716.999 352.174 710.84 352.058 704.873 352.023C704.683 327.503 705.553 302.962 705.414 278.361L695.523 278.316C690.872 278.375 684.866 277.842 680.524 278.915C680.502 273.752 680.341 268.025 680.756 262.924L682.143 261.437Z"/><path fill="#2A2A6C" d="M682.143 261.437C681.835 266.927 681.43 272.539 681.476 278.027L695.523 278.316C690.872 278.375 684.866 277.842 680.524 278.915C680.502 273.752 680.341 268.025 680.756 262.924L682.143 261.437Z"/><path fill="#354DB1" d="M728.962 272.439L750.238 272.71L747.707 273.167C746.568 275.128 748.159 277.647 744.621 278.145C740.538 278.72 733.077 278.567 728.965 278.315L728.962 272.439Z"/><path fill="#FEAEB5" d="M472.981 255.971C472.997 254.522 472.772 253.124 473.624 252.087C478.161 251.562 489.037 251.893 493.991 251.917L533.937 252.04C533.971 255.629 534.624 270.298 533.22 272.362L531.553 272.694C530.792 274.731 530.567 275.829 530.096 277.975C524.719 277.993 518.825 278.129 513.491 278.001L513.17 322.345C513.125 328.644 513.368 339.569 512.909 345.587C510.01 346.441 510.546 347.3 509.706 350.153C506.212 353.036 494.437 351.304 489.523 351.102C489.494 326.853 489.95 302.605 490.891 278.374L467.866 277.96C467.358 274.167 467.324 259.899 468.816 256.709C470.123 255.748 471.304 255.975 472.981 255.971Z"/><path fill="#354DB1" d="M467.866 277.96C467.358 274.167 467.324 259.899 468.816 256.709C470.123 255.748 471.304 255.975 472.981 255.971L472.889 272.313C480.561 272.326 488.366 272.259 496.024 272.354L495.365 345.697C500.38 345.697 508.092 345.913 512.909 345.587C510.01 346.441 510.546 347.3 509.706 350.153C506.212 353.036 494.437 351.304 489.523 351.102C489.494 326.853 489.95 302.605 490.891 278.374L467.866 277.96Z"/><path fill="#354DB1" d="M513.487 272.079C517.429 272.12 528.125 272.011 531.553 272.694C530.792 274.731 530.567 275.829 530.096 277.975C524.719 277.993 518.825 278.129 513.491 278.001L513.487 272.079Z"/><path fill="#322F79" d="M353.934 421.727C354.159 420.405 354.403 419.087 354.666 417.772C357.412 417.302 365.98 417.426 368.81 417.676C368.999 418.641 369.495 421.458 369.757 422.257C371.422 422.138 373.331 421.79 374.758 422.484C375.262 427.377 375.231 446.744 374.866 451.784C373.079 452.277 371.795 452.154 369.955 452.143C369.945 453.669 370.15 455.824 369.501 457.013C366.859 457.402 356.689 457.722 354.605 456.68L354.405 456.164C354.311 454.717 354.393 453.841 353.658 452.593C352.28 452.342 350.865 452.303 349.464 452.218L349.073 451.711C348.832 446.537 348.433 426.545 349.183 421.92C350.69 421.182 352.194 421.563 353.934 421.727Z"/><path fill="#F8F7DA" d="M354.405 456.164C354.311 454.717 354.393 453.841 353.658 452.593C352.28 452.342 350.865 452.303 349.464 452.218L349.073 451.711C348.832 446.537 348.433 426.545 349.183 421.92C350.69 421.182 352.194 421.563 353.934 421.727L354.391 422.431C354.295 427.943 353.907 446.565 354.593 451.578C355.624 452.324 355.957 452.219 357.258 452.412L354.913 452.956C354.487 454.087 354.498 454.967 354.405 456.164Z"/><path fill="#F8F7DA" d="M369.757 422.257C371.422 422.138 373.331 421.79 374.758 422.484C375.262 427.377 375.231 446.744 374.866 451.784C373.079 452.277 371.795 452.154 369.955 452.143C370.021 450.152 370.546 445.549 369.698 444.127L369.479 422.519L369.757 422.257Z"/><path fill="#F8F7DA" d="M369.698 444.127C370.546 445.549 370.021 450.152 369.955 452.143C369.945 453.669 370.15 455.824 369.501 457.013C366.859 457.402 356.689 457.722 354.605 456.68L354.405 456.164C354.498 454.967 354.487 454.087 354.913 452.956L357.258 452.412C360.443 451.871 366.07 452.019 369.487 452.009L369.698 444.127Z"/><path fill="#F8F7DA" d="M353.934 421.727C354.159 420.405 354.403 419.087 354.666 417.772C357.412 417.302 365.98 417.426 368.81 417.676C368.999 418.641 369.495 421.458 369.757 422.257L369.479 422.519C364.449 422.519 359.42 422.489 354.391 422.431L353.934 421.727Z"/><path fill="#F8F7DA" d="M516.037 479.95C522.667 480.034 529.491 479.912 536.137 479.866L536.426 485.027C537.974 485.019 540.602 484.76 541.787 485.521C542.111 488.778 542.045 490.046 541.856 493.278L541.27 493.928L538.993 494.033C537.708 495.68 538.876 495.715 537.918 497.878L537.156 498.087C535.881 499.549 536.316 504.058 536.364 506.289L541.824 506.335L541.909 519.191L536.055 519.742C536.099 516.8 536.518 509.108 535.321 506.914C532.595 506.848 531.992 507.304 530.312 505.262C530.258 503.791 530.407 504.291 529.858 502.979C527.59 502.188 524.289 502.481 521.774 502.518C521.719 506.451 522.081 515.533 521.665 518.822C520.035 520.468 518.173 520.791 516.355 519.123C515.435 511.985 516.021 488.463 516.037 479.95Z"/><path fill="#322F79" d="M521.639 485.077L536.426 485.027C537.974 485.019 540.602 484.76 541.787 485.521C542.111 488.778 542.045 490.046 541.856 493.278L541.27 493.928L538.993 494.033C537.708 495.68 538.876 495.715 537.918 497.878C537.164 496.617 537.559 495.759 536.494 493.503C530.965 494.022 534.967 495.855 531.309 497.264C529.306 498.036 523.985 497.737 521.705 497.688L521.639 485.077Z"/><path fill="#F8F7DA" d="M536.426 485.027C537.974 485.019 540.602 484.76 541.787 485.521C542.111 488.778 542.045 490.046 541.856 493.278L541.27 493.928L538.993 494.033C537.708 495.68 538.876 495.715 537.918 497.878C537.164 496.617 537.559 495.759 536.494 493.503L536.426 485.027Z"/><path fill="#F8F7DA" d="M741.188 479.791C745.864 479.943 749.768 478.879 753.482 480.346C754.806 482.011 754.327 481.89 754.288 484.661C756.145 484.598 758.085 484.306 759.664 485.148C760.227 490.575 759.759 498.517 759.964 504.25C760.09 507.788 760.555 515.696 760.237 518.838C758.271 520.685 756.576 520.246 754.89 518.379C754.301 515.736 754.481 505.704 754.46 502.407L740.98 502.45C741.001 505.299 741.294 517.69 740.633 519.623C738.536 520.105 738.136 519.96 735.939 519.721C734.889 517.524 735.327 489.922 735.147 485.053L741.027 485.085L741.188 479.791Z"/><path fill="#2A2A6C" d="M741.188 479.791C745.864 479.943 749.768 478.879 753.482 480.346C754.806 482.011 754.327 481.89 754.288 484.661L754.076 484.954L754.203 497.324L740.979 497.4L741.027 485.085L741.188 479.791Z"/><path fill="#F8F7DA" d="M741.188 479.791C745.864 479.943 749.768 478.879 753.482 480.346C754.806 482.011 754.327 481.89 754.288 484.661L754.076 484.954C749.726 485.021 745.377 485.065 741.027 485.085L741.188 479.791Z"/><path fill="#F8F7DA" d="M545.075 417.008C549.601 417.116 553.676 416.145 557.681 417.485C558.819 418.873 558.399 418.713 558.268 421.141L558.847 422.002C560.229 422.107 561.317 422.156 562.703 422.181C564.339 424.126 563.107 444.972 564.006 448.551C564.27 449.603 564.175 454.925 564.024 456.31C562.925 457.037 562.45 456.889 561.107 456.918C556.803 454.732 558.53 444.463 558.135 439.501L544.931 439.545C544.925 442.21 545.111 455.284 544.5 456.894C542.954 457.185 540.567 457.325 539.214 456.454C538.553 447.614 539.003 431.509 539.019 422.131C540.78 422.172 543.298 422.148 544.981 422.349L545.075 417.008Z"/><path fill="#322F79" d="M545.075 417.008C549.601 417.116 553.676 416.145 557.681 417.485C558.819 418.873 558.399 418.713 558.268 421.141L557.087 422.163L557.768 422.69C558.319 425.058 558.083 431.792 558.066 434.547L544.96 434.576L544.981 422.349L545.075 417.008Z"/><path fill="#F8F7DA" d="M545.075 417.008C549.601 417.116 553.676 416.145 557.681 417.485C558.819 418.873 558.399 418.713 558.268 421.141L557.087 422.163C553.088 422.592 548.994 422.449 544.981 422.349L545.075 417.008Z"/><path fill="#F8F7DA" d="M619.037 421.981C619.035 419.199 618.549 419.24 619.891 417.562C623.798 416.091 628.225 417.114 632.911 417.042L633.023 422.458L638.487 422.042C638.652 433.529 639.34 444.451 640.033 455.917L634.478 456.322C634.138 450.629 633.843 444.934 633.593 439.237L619.564 439.33C619.553 442.001 619.883 455.81 618.99 456.919C616.904 457.03 616.197 457.207 614.257 456.6C613.635 449.09 613.802 430.768 614.151 422.984C615.289 421.955 617.05 422.804 619.037 421.981Z"/><path fill="#322F79" d="M629.363 422.257L633.023 422.458L633.097 434L619.546 434.053L619.558 422.435C622.827 422.432 626.096 422.373 629.363 422.257Z"/><path fill="#F8F7DA" d="M619.037 421.981C619.035 419.199 618.549 419.24 619.891 417.562C623.798 416.091 628.225 417.114 632.911 417.042L633.023 422.458L629.363 422.257C628.15 421.267 620.798 421.775 619.037 421.981Z"/><path fill="#F8F7DA" d="M710.504 417.375L710.897 416.406C719.129 414.098 724.849 415.559 733.244 416.369L733.474 416.866C731.554 417.193 730.384 417.087 728.732 417.333C730.575 417.351 731.183 417.339 732.971 417.685L733.496 418.466C733.449 419.9 733.592 421.302 732.882 422.479C729.817 423.084 716.537 422.821 712.569 422.824L712.506 433.049C716.038 433.112 727.657 432.235 729.71 433.772C730.011 435.741 730.069 435.739 729.774 437.668C727.114 438.961 716.066 438.406 712.544 438.356C712.654 442.497 712.621 446.813 712.65 450.97C716.73 450.966 731.571 449.986 733.938 451.831C733.965 454.021 734.3 453.962 733.396 455.618C729.006 456.414 712.549 455.993 707.019 455.956C707.06 444.435 706.553 429.235 707.171 418.026C708.445 417.055 708.514 417.405 710.504 417.375Z"/><path fill="#2A2A6C" d="M710.504 417.375L710.897 416.406C719.129 414.098 724.849 415.559 733.244 416.369L733.474 416.866C731.554 417.193 730.384 417.087 728.732 417.333C725.366 417.794 714.296 417.435 710.504 417.375Z"/><path fill="#F8F7DA" d="M668.772 417.796C675.7 417.642 682.63 417.613 689.559 417.709C689.74 419.285 689.776 420.186 690.308 421.709C691.927 422.682 693.158 422.194 695.365 422.041C695.408 426.291 696.186 448.917 694.754 451.16C692.619 451.601 692.144 451.544 689.922 451.485C689.969 447.018 690.775 425.048 688.939 422.771C684.152 422.981 678.862 422.941 674.034 423.007L674.369 452.047C679.125 452.173 686.149 450.804 689.367 452.999C690.308 454.929 690.036 453.899 689.904 456.272C687.857 457.811 672.371 457.045 668.879 456.993C668.933 443.928 668.897 430.862 668.772 417.796Z"/><path fill="#F8F7DA" d="M459.472 417.32C463.632 417.5 483.922 416.632 485.505 418.495C485.63 419.79 485.863 420.599 485.274 421.739C482.122 423.429 469.531 422.744 464.989 422.731L464.925 433.096C469.045 433.084 479.792 431.563 482.122 434.831C482.075 436.698 482.39 436.801 481.504 438.088C477.062 439.244 469.985 437.971 464.983 438.575L464.997 450.976C469.571 451.011 483.192 449.528 485.996 452.575C486.025 454.484 486.345 454.321 485.432 455.577C480.212 456.435 465.552 455.996 459.382 455.956C459.269 443.179 459.441 430.121 459.472 417.32Z"/><path fill="#F8F7DA" d="M616.263 498.004C616.286 493.533 615.021 489.115 616.865 485.738C618.261 484.671 620.015 484.972 621.86 485L621.699 520.009C619.499 520.252 617.899 520.78 616.231 519.695L616.053 517.875L616.073 503.124L602.986 503.165C603.016 507.33 603.304 515.595 602.722 519.39C601.556 520.193 599.67 519.883 598.119 519.843C596.813 518.062 597.367 488.969 597.357 485.068L602.991 485.075L602.974 498.044L616.263 498.004Z"/><path fill="#F8F7DA" d="M442.449 479.466C446.522 479.473 466.317 478.626 468.341 480.149C468.377 481.68 468.583 483.024 467.967 484.387C465.86 484.822 451.201 484.658 448 484.691L448 495.623C452.227 495.563 459.431 495.251 463.407 495.738C464.189 496.95 463.994 498.33 464.116 500.009L463.489 500.823C459.947 501.29 451.874 501.033 447.983 501.013C448.008 506.442 448.04 512.063 448.013 517.505C448.005 519.113 447.687 519.065 446.732 519.863C444.923 520.216 444.987 520.289 443.157 519.639C441.951 517.536 442.464 484.688 442.449 479.466Z"/><path fill="#F8F7DA" d="M666.518 480.051C671.729 479.98 679.21 479.615 684.455 480.322C685.573 480.472 685.725 481.394 686.08 482.275C685.896 486.062 681.983 485.45 679.394 485.302L679.433 514.976C682.706 515.137 682.434 514.575 684.884 516.124C685.58 517.449 685.576 517.024 685.668 518.378C684.575 520.066 685.299 519.635 683.625 520.018C679.267 520.015 670.918 520.373 667.172 519.698L666.568 518.646C666.561 516.415 666.187 516.315 667.183 514.768C669.007 513.991 671.936 514.478 674.039 514.639L674.086 485.185C671.97 485.328 668.863 485.855 667.164 484.893C666.147 483.451 666.469 481.911 666.518 480.051Z"/><path fill="#F8F7DA" d="M376.044 479.958C378.578 479.97 391.644 479.672 393.166 480.38C393.763 482.348 393.72 482.448 393.483 484.535C392.298 485.548 391.136 484.88 388.648 485.272C387.278 487.711 387.952 510.763 387.968 514.522C391.228 514.491 391.448 514.071 393.651 515.921C394.277 517.508 394.024 517.877 393.564 519.517L392.568 519.971C389.333 519.969 378.008 520.47 376.117 518.636C375.851 516.776 375.549 515.577 376.989 514.356C379.203 514.078 380.678 514.314 382.864 514.52L382.777 485.006C380.872 485.066 378.365 485.38 376.717 484.625C375.617 482.653 376.03 482.59 376.044 479.958Z"/><path fill="#F8F7DA" d="M635.007 479.936C638.36 479.921 655.218 479.51 657.009 480.519C657.255 482.159 657.459 482.865 657.184 484.527C655.095 485.313 652.024 485.044 649.682 485.022L649.678 512.813L649.792 519.946L644.097 520.486L644.053 484.987C641.294 485.047 637.713 485.654 635.67 484.555C634.597 482.659 635.003 482.485 635.007 479.936Z"/><path fill="#F8F7DA" d="M596.451 433.958C596.356 429.648 595.422 421.127 597.161 418.028C598.752 416.994 599.668 416.681 601.469 417.797C602.603 422.758 601.904 435.654 601.947 441.5L601.939 457.26L596.344 457.307C596.28 452.935 596.142 448.397 596.306 444.042L590.305 444.588L590.062 433.963L596.451 433.958Z"/><path fill="#F8F7DA" d="M555.037 505.244C555.004 499.886 554.593 485.384 555.228 480.768C556.474 479.872 559.29 479.758 560.6 480.546C562.043 483.69 559.909 484.574 561.714 486.52C563.267 486.455 563.798 486.38 565.363 486.684C566.549 488.578 565.434 492.074 566.454 495.001L560.821 495.098C560.831 499.073 561.292 517.4 560.07 519.695C558.084 520.069 557.104 520.178 555.083 520.314L555.037 505.244Z"/><path fill="#F8F7DA" d="M424.069 480.055C425.912 479.997 427.699 479.67 429.118 480.715C429.678 481.644 430.435 483.079 430.355 484.186C429.529 495.622 429.968 507.074 429.99 518.548C428.777 520.448 426.42 520.66 424.643 519.477C424.183 515.947 425.317 507.596 423.773 506.134C422.023 505.982 420.817 505.916 419.061 505.912L419.188 498.062L420.466 498.031C422.252 497.727 423.026 497.916 424.204 496.924C424.394 491.23 424.013 485.731 424.069 480.055Z"/><path fill="#F8F7DA" d="M405.005 479.991C406.913 479.94 407.494 479.894 409.348 480.214C410.794 481.794 410.438 482.988 411.347 485.551C413.237 486.672 413.911 486.305 416.317 486.351C416.299 489.286 416.341 491.171 416.598 494.126L416.195 494.984C414.291 494.948 412.946 495.001 411.046 495.139C408.595 498.355 412.34 514.924 409.108 519.572C407.695 520.375 407.427 520.165 405.797 519.975C405.592 519.766 405.386 519.558 405.181 519.35C404.897 511.129 405.005 486.53 405.005 479.991Z"/><path fill="#F8F7DA" d="M579.698 487.23C579.711 485.3 579.487 481.824 580.287 480.265C582.105 479.404 581.211 479.488 583.029 479.779C586.384 482.864 584.989 500.109 584.989 505.5C585.009 510.05 586.126 516.59 584.007 519.661C582.437 520.507 581.394 520.441 579.622 520.588L579.67 494.977L573.453 494.947C573.503 492.364 573.537 489.78 573.553 487.197L579.698 487.23Z"/><path fill="#F8F7DA" d="M576.031 417.142C583.61 416.939 579.632 417.149 582.3 421.391C582.966 422.45 585.064 422.674 586.492 422.453C586.902 424.696 586.782 426.443 586.753 428.71L586.088 429.272C583.787 429.076 583.776 428.701 582.031 429.562C580.711 432.516 582.385 451.418 581.322 455.893C581.054 457.025 579.901 457.367 579.012 457.724C577.052 457.474 577.813 457.881 576.481 456.819C575.839 451.898 576.069 445.882 576.065 440.845L576.031 417.142Z"/><path fill="#F8F7DA" d="M330.088 417.465C332.358 417.424 333.016 417.269 335.093 418.008C336.789 420.433 335.546 446.725 335.978 451.203C336.12 452.674 336.174 455.74 334.996 456.796C332.899 457.221 332.94 457.19 330.789 456.974L330.348 456.076L330.482 427.905L323.337 427.896C323.188 426.074 322.951 425.045 323.531 423.302C326.122 421.592 326.339 423.184 329.376 421.805C330.427 419.987 330.048 419.904 330.088 417.465Z"/><path fill="#F8F7DA" d="M521.346 416.6L526.635 416.91C526.474 428.269 527.163 445.844 526.341 456.628C525.121 457.397 522.79 457.38 521.229 457.5C521.076 452.729 521.905 431.803 520.65 429.196C516.618 428.799 515.948 425.707 517.409 422.383C519.101 422.117 519.087 422.165 520.611 421.43C521.789 419.423 521.35 419.342 521.346 416.6Z"/><path fill="#F8F7DA" d="M497.048 417.238C498.934 417.039 500.577 416.54 501.939 418.012C501.024 423.656 503.755 420.71 506.159 422.652C506.467 425.091 506.53 425.309 506.128 427.688C505.018 429.131 505.486 428.672 503.239 429.146C501.796 431.059 502.323 451.036 502.317 454.625C502.387 455.824 502.35 455.889 502.128 457.082C500.749 457.772 498.577 457.528 497.262 456.782C496.735 452.936 496.949 446.281 496.958 442.212L497.048 417.238Z"/><path fill="#F8F7DA" d="M395.572 421.882C395.489 419.061 395.039 419.331 396.301 417.419C398.323 416.382 397.32 416.517 399.359 416.697C402.226 418.6 401.662 418.601 401.44 422.143C403.403 422.649 404.254 422.126 406.442 423.061C407.476 424.453 407.075 427.15 407.022 429.041C402.393 428.855 401.981 428.439 399.819 432.913L399.633 433.306L398.345 433.71C396.911 433.463 395.626 433.46 394.647 432.485L394.847 430.036C394.033 428.812 392.125 428.583 390.645 428.2C390.268 426.133 390.393 425.328 390.505 423.193C391.743 421.909 393.401 422.147 395.572 421.882Z"/><path fill="#F8F7DA" d="M395.572 421.882C395.489 419.061 395.039 419.331 396.301 417.419C398.323 416.382 397.32 416.517 399.359 416.697C402.226 418.6 401.662 418.601 401.44 422.143C399.011 421.681 398.093 421.797 395.572 421.882Z"/><path fill="#322F79" d="M396.03 422.485C397.78 422.393 398.948 422.13 400.483 422.921C401.407 424.318 401.024 426.803 400.957 428.61C399.192 428.708 398.05 428.975 396.508 428.16C395.549 426.679 395.947 424.364 396.03 422.485Z"/><path fill="#F8F7DA" d="M478.047 514.396C478.02 510.396 477.355 486.898 478.732 485.082C480.195 484.668 481.114 485.091 482.6 485.485L483.204 486.093C484.459 493.92 482.967 506.909 483.878 514.47L483.593 514.609L478.047 514.396Z"/><path fill="#F8F7DA" d="M696.429 514.539C696.897 508.916 696.713 488.226 697.378 485.581C698.903 484.708 700.149 485.056 701.952 485.211L702.426 485.449C702.304 492.791 701.805 508.021 702.591 514.949L702.469 515.588C701.158 514.106 698.344 514.528 696.429 514.539Z"/><path fill="#F8F7DA" d="M498.607 485.049L498.91 484.882C500.755 484.932 502.091 484.82 503.81 485.491C504.542 489.766 504.488 508.828 504.579 514.465L498.588 514.396C498.946 508.648 499.498 490.416 498.607 485.049Z"/><path fill="#F8F7DA" d="M422.016 445.102L427.839 444.696L427.916 452.085C432.666 451.97 437.419 451.984 442.168 452.125L442.36 452.492C442.685 454.454 442.741 454.656 442.656 456.611C441.074 457.3 429.056 457.593 427.951 456.422C427.88 454.888 428.005 453.806 427.208 452.52C425.285 451.488 424.742 451.485 422.548 451.303C421.598 450.016 421.975 446.9 422.016 445.102Z"/><path fill="#F8F7DA" d="M482.6 485.485C482.898 483.71 482.859 480.996 483.76 480.205C486.328 480.069 496.389 479.737 498.69 480.327C499.182 482.197 499.024 482.981 498.91 484.882L498.607 485.049C495.316 485.033 485.468 484.637 483.204 486.093L482.6 485.485Z"/><path fill="#F8F7DA" d="M483.878 514.47C487.003 514.423 496.478 513.765 498.566 515.443C498.591 517.054 498.799 518.225 498.035 519.607C495.228 520.333 487.169 520.017 483.802 519.982C483.57 518.234 483.608 516.383 483.593 514.609L483.878 514.47Z"/><path fill="#F8F7DA" d="M427.564 422.142C427.384 420.077 427.164 419.238 427.695 417.287C429.704 416.754 439.614 417.102 441.835 417.238C442.642 418.411 442.253 420.115 442.145 421.67L441.866 422.408L427.543 422.415L427.564 422.142Z"/><path fill="#F8F7DA" d="M427.46 431.807C430.743 436.209 437.051 431.435 441.599 434.593C442.53 436.066 442.218 437.201 442.096 438.982C438.015 438.81 430.532 440.155 427.953 437.805C427.271 436.157 427.369 434.999 427.308 433.225L427.46 431.807Z"/><path fill="#F8F7DA" d="M701.952 485.211C701.96 483.476 701.743 481.767 702.441 480.307C706.066 479.946 713.051 479.785 716.623 480.334C717.198 481.911 716.972 482.813 716.828 484.48C715.449 485.449 705.084 485.358 702.426 485.449L701.952 485.211Z"/><path fill="#F8F7DA" d="M442.096 438.982L447.912 439.072C447.956 443.454 449.154 449.346 447.017 452.085C445.395 452.831 444.162 452.579 442.36 452.492L442.168 452.125C442.592 450.423 442.002 442.13 442.096 438.982Z"/><path fill="#F8F7DA" d="M702.591 514.949C705.189 514.949 715.384 514.538 716.836 515.481C716.926 516.897 717.221 518.544 716.673 519.77C714.242 519.979 704.938 520.231 702.712 519.719C702.247 517.824 702.339 517.474 702.469 515.588L702.591 514.949Z"/><path fill="#F8F7DA" d="M602.991 485.075C603.017 482.692 602.614 481.975 603.799 480.266C607.347 478.757 611.123 480.062 615.906 480.005C615.929 482.569 616.37 482.707 615.213 484.434C611.514 486.046 607.567 484.97 602.991 485.075Z"/><path fill="#F8F7DA" d="M421.481 421.999C423.457 422.002 425.575 422.094 427.564 422.142L427.543 422.415C426.923 425.824 427.726 428.451 427.46 431.807L427.308 433.225L421.621 433.342L421.481 421.999Z"/><path fill="#F8F7DA" d="M617.723 467.672C618.554 467.737 618.634 467.795 619.444 468.006C619.875 469.641 619.948 472.79 619.072 474.322C610.552 474.737 616.582 475.862 612.2 478.888C610.606 478.393 608.514 477.929 608.422 476.001C609.495 474.254 610.848 474.699 612.252 473.799C614.503 472.356 612.737 470.378 613.131 468.538C614.613 467.468 615.851 467.695 617.723 467.672Z"/><path fill="#354DB1" d="M516.53 220.629C520.698 220.75 524.484 219.622 527.665 221.3C528.667 223.046 528.286 223.144 528.264 225.515C524.006 225.492 520.713 226.647 517.334 225.222C516.068 223.452 516.537 223.344 516.53 220.629Z"/><path fill="#354DB1" d="M641.483 220.669C645.617 220.889 649.039 219.887 652.268 221.53C653.29 223.31 652.855 223.454 652.702 225.953C648.693 225.86 645.352 226.856 642.158 225.34C641.001 223.408 641.441 223.362 641.483 220.669Z"/><path fill="#354DB1" d="M683.383 220.903C687.632 220.95 691.12 219.935 694.68 221.467C695.769 222.983 695.36 223.165 695.367 225.502C691.105 225.481 687.675 226.599 684.332 225.194C683.046 223.493 683.488 223.533 683.383 220.903Z"/><path fill="#354DB1" d="M414.459 220.277C418.546 220.535 422.358 219.452 425.241 221.251C426.097 223.022 425.731 222.986 425.535 225.296C421.847 225.474 418.384 226.254 415.273 224.77C414.084 222.956 414.511 222.879 414.459 220.277Z"/><path fill="#354DB1" d="M558.444 220.93L569.714 220.976C569.956 222.084 570.189 224.302 570.349 225.51C566.25 225.55 562.866 226.598 559.31 225.136C558.048 223.505 558.495 223.534 558.444 220.93Z"/><path fill="#354DB1" d="M537.447 220.961C541.45 221.016 544.809 220.084 548.216 221.446C549.441 222.996 548.991 223.032 548.991 225.583C545.133 225.58 541.773 226.662 538.509 225.237C537.102 223.503 537.573 223.752 537.447 220.961Z"/><path fill="#354DB1" d="M704.711 220.702C708.734 220.88 712.025 220.03 715.335 221.581C716.369 223.273 715.96 223.29 715.855 225.715L704.951 225.982L704.711 220.702Z"/><path fill="#354DB1" d="M580.055 220.973C584.052 221.015 587.527 220.035 590.82 221.578C591.864 223.264 591.473 223.273 591.447 225.657C587.596 225.596 583.954 226.75 580.823 225.176C579.698 223.488 580.102 223.421 580.055 220.973Z"/><path fill="#354DB1" d="M455.865 220.474C459.696 220.522 463.124 219.503 466.188 220.93C467.329 222.506 466.913 222.716 466.962 225.127C462.792 225.002 459.688 226.172 456.446 224.661C455.457 222.989 455.841 222.788 455.865 220.474Z"/><path fill="#354DB1" d="M611.109 220.774L611.293 220.903C612.075 222.518 612.068 223.942 610.892 225.216C608.32 226.118 604.467 225.805 601.608 225.779L600.797 225.17C600.668 223.853 600.415 222.839 600.905 221.637C603.254 220.497 608.266 220.791 611.109 220.774Z"/><path fill="#354DB1" d="M750.303 377.311C753.506 376.86 754.572 376.318 756.303 379.19C754.441 381.757 751.321 381.626 748.441 381.904C746.357 382.017 745.079 382.393 743.534 381.456C743.248 379.879 743.241 379.994 743.722 378.465C745.519 377.312 747.639 377.653 750.303 377.311Z"/><path fill="#354DB1" d="M393.507 220.054C397.102 220.129 400.536 219.079 403.271 220.699C404.295 222.585 403.908 222.619 403.881 225.113C400.664 225.108 397.007 225.871 394.183 224.472C393.092 222.69 393.503 222.548 393.507 220.054Z"/><path fill="#354DB1" d="M503.373 220.253C505.898 220.148 506.12 220.155 507.65 221.978C507.536 225.851 503.098 225.191 500.375 225.101L497.528 225.001C495.855 223.953 496.391 224.644 495.634 223.063C496.846 219.654 500.475 220.201 503.373 220.253Z"/><path fill="#354DB1" d="M666.62 221.314C669.763 221.006 673.028 220.173 674.175 223.924C673.023 226.331 671.768 225.865 669.469 225.914C666.196 225.994 663.459 226.574 661.778 223.203L662.478 222.089C663.884 221.134 664.9 221.327 666.62 221.314Z"/><path fill="#354DB1" d="M348.575 322.79C350.952 322.854 351.534 322.556 353.101 323.786C354.154 326.095 353.601 330.163 353.548 333.062C351.241 333.189 350.467 333.484 348.948 332.246C347.904 329.892 348.494 325.717 348.575 322.79Z"/><path fill="#354DB1" d="M663.129 377.503C667.025 377.521 670.458 376.521 673.585 378.005C674.638 379.709 674.211 379.662 674.022 382.168C670.201 382.027 666.856 383.022 663.827 381.56C662.768 380.012 663.16 379.797 663.129 377.503Z"/><path fill="#354DB1" d="M476.482 219.963C480.464 220.106 483.589 219.11 486.832 220.578C487.895 222.26 487.504 222.243 487.497 224.636C483.499 224.537 480.409 225.722 477.294 224.229C476.172 222.474 476.563 222.421 476.482 219.963Z"/><path fill="#354DB1" d="M621.394 221.034C624.907 221.098 628.213 220.246 631.197 221.566C632.532 223.284 632.105 223.158 632.354 225.748C629.051 225.907 625.239 226.611 622.391 225.438C621.001 223.731 621.482 223.831 621.394 221.034Z"/><path fill="#354DB1" d="M583.005 377.123C586.726 377.124 590.135 376.191 593.293 377.584C594.407 379.267 593.977 379.227 593.871 381.751C589.945 381.678 586.945 382.655 583.669 381.09C582.626 379.497 583.011 379.432 583.005 377.123Z"/><path fill="#F8F7DA" d="M506.751 428.997L515.324 428.964L515.036 435.736L508.761 435.828L506.751 428.997Z"/><path fill="#354DB1" d="M543.049 376.98C546.399 377.018 549.86 376.129 552.83 377.546C553.876 379.281 553.487 379.313 553.475 381.721C549.98 381.72 546.616 382.768 543.804 381.504C542.572 379.71 543.031 379.675 543.049 376.98Z"/><path fill="#354DB1" d="M358.44 362.907L359.328 363.064C361.748 365.376 363.321 366.372 364.332 369.482C363.898 371.333 363.771 370.885 361.73 372.364C359.871 373.08 355.153 366.963 355.968 364.759C356.302 363.857 357.597 363.404 358.44 362.907Z"/><path fill="#354DB1" d="M423.781 377.376C427.65 377.381 430.838 376.521 434.233 377.861C435.404 379.467 435.001 379.218 435.009 381.686C431.281 381.824 427.885 382.871 424.646 381.432C423.497 379.753 423.889 379.799 423.781 377.376Z"/><path fill="#354DB1" d="M722.114 377.496C724.666 377.493 730.256 377.047 732.36 378.23C733.707 378.987 733.408 380.323 733.534 381.984C729.656 382.037 726.156 382.963 722.808 381.589C721.644 380.007 722.079 379.994 722.114 377.496Z"/><path fill="#354DB1" d="M622.448 377.42C626.212 377.434 629.486 376.552 632.699 377.895C633.905 379.489 633.465 379.531 633.483 382.062C630.549 382.031 626 382.506 623.478 381.587C622.084 380.037 622.561 380.14 622.448 377.42Z"/><path fill="#354DB1" d="M464.119 377.288C467.289 377.139 473.269 376.149 474.98 379.04C474.697 380.51 474.822 380.617 473.882 381.726C470.582 381.699 467.087 382.706 464.417 381.487C463.397 379.738 463.828 379.831 464.119 377.288Z"/><path fill="#354DB1" d="M349.604 344.757C351.176 344.584 351.879 344.398 353.431 344.795C355.75 347.023 355.382 350.46 355.591 353.818C348.067 354.71 349.635 351.068 349.604 344.757Z"/><path fill="#354DB1" d="M349.117 283.243C350.68 283.155 350.881 283.085 352.46 283.387C354.335 285.269 354.26 291.274 352.895 293.048C351.437 293.279 351.228 293.279 349.747 293.231C347.632 291.249 347.829 285.387 349.117 283.243Z"/><path fill="#354DB1" d="M503.534 377.037C507.108 377.092 510.466 376.156 513.365 377.547C514.393 379.269 514.001 379.175 513.9 381.602C510.709 381.701 506.979 382.495 504.386 381.466C503.098 379.717 503.559 379.752 503.534 377.037Z"/><path fill="#354DB1" d="M683.187 377.51C686.209 377.467 690.432 376.854 693.05 377.862C694.387 379.482 693.925 379.293 693.97 381.996C690.173 381.949 686.78 383.028 683.842 381.636C682.785 379.993 683.182 379.877 683.187 377.51Z"/><path fill="#354DB1" d="M725.452 221.852C729.435 222.022 732.353 221.096 735.716 222.462C736.854 223.965 736.435 224.035 736.446 226.428C732.713 226.487 729.325 227.434 726.233 225.934C725.153 224.253 725.53 224.213 725.452 221.852Z"/><path fill="#354DB1" d="M523.541 377.131C527.318 377.197 530.615 376.226 533.718 377.585C534.777 379.243 534.374 379.094 534.228 381.547C531.053 381.745 527.235 382.482 524.565 381.45C523.234 379.748 523.684 379.797 523.541 377.131Z"/><path fill="#354DB1" d="M436.328 220.509C439.556 220.572 443.156 219.797 446.064 221.033C447.276 222.744 446.861 222.472 446.876 225.046C443.477 225.138 439.909 226.093 437.143 224.939C435.912 223.22 436.36 223.13 436.328 220.509Z"/><path fill="#354DB1" d="M562.492 376.951C566.069 377.051 569.272 376.196 572.241 377.567C573.412 379.262 573.01 379.124 573.083 381.605C569.831 381.805 566.072 382.496 563.321 381.11C562.147 379.502 562.563 379.406 562.492 376.951Z"/><path fill="#354DB1" d="M444.017 377.112C447.339 377.184 451.006 376.297 453.73 377.832C454.759 379.508 454.383 379.348 454.322 381.717C450.776 381.684 447.453 382.84 444.67 381.454C443.605 379.705 444.008 379.557 444.017 377.112Z"/><path fill="#354DB1" d="M483.877 377.044C487.161 377.082 490.734 376.36 493.333 377.578C494.402 379.268 494.016 379.329 494.051 381.709L488.96 382.036C486.73 382.196 486.75 382.37 484.767 381.484C483.469 379.712 483.928 379.766 483.877 377.044Z"/><path fill="#354DB1" d="M774.497 247.611C775.389 247.816 776.17 247.782 776.539 248.36C778.175 250.914 778.921 254.561 778.631 257.552C778.532 258.58 778.259 258.369 777.033 259.232C775.875 259.115 775.947 259.158 774.991 258.503C773.839 255.835 772.814 253.499 772.759 250.491C772.726 248.686 773.146 248.815 774.497 247.611Z"/><path fill="#354DB1" d="M404.664 377.483C408.283 377.519 411.452 376.498 414.384 377.883C415.504 379.526 415.099 379.607 415.139 382.027C411.724 381.898 408.245 382.752 405.472 381.591C404.178 380.016 404.641 380.156 404.664 377.483Z"/><path fill="#354DB1" d="M643.085 377.402C646.346 377.342 649.973 376.789 652.734 377.915C653.962 379.474 653.539 379.414 653.633 381.896C649.801 381.868 646.811 382.933 643.707 381.446C642.696 379.746 643.071 379.746 643.085 377.402Z"/><path fill="#354DB1" d="M348.763 263.125C351.37 263.073 351.543 262.677 353.155 263.959C354.092 266.381 353.479 270.105 353.363 273.023C350.832 273.078 350.763 273.52 349.114 272.368C348.052 269.794 348.664 266.228 348.763 263.125Z"/><path fill="#354DB1" d="M776.134 267.602C778.117 267.63 777.52 267.264 778.872 268.112C779.759 270.77 780.195 276.575 778.181 278.659C777.267 278.575 776.408 278.459 775.496 278.344C773.779 276.186 774.294 269.464 776.134 267.602Z"/><path fill="#F8F7DA" d="M566.454 495.001L573.453 494.947C573.46 497.714 573.541 499.997 573.154 502.754C572.196 503.494 571.595 503.47 570.385 503.696C566.233 502.12 569.115 497.934 566.454 495.001Z"/><path fill="#354DB1" d="M378.875 220.67L379.704 220.537C381.847 220.209 382.096 220.258 383.552 221.315C384.26 224.936 380.903 225.104 378.25 225.498C375.794 226.148 375.446 226.535 373.461 224.882C373.064 223.076 373.019 223.984 373.911 222.098C375.264 220.784 376.93 220.88 378.875 220.67Z"/><path fill="#354DB1" d="M603.508 377.076C606.364 377.078 610.044 376.464 612.197 377.493C613.482 379.298 613.032 379.191 613.081 381.909C610.216 381.971 606.458 382.588 604.284 381.547C603.086 379.687 603.518 379.738 603.508 377.076Z"/><path fill="#354DB1" d="M348.544 303.585C350.404 303.477 351.933 303.101 353.387 304.096C354.654 306.157 354.018 309.782 353.874 312.429L348.566 312.245L348.544 303.585Z"/><path fill="#354DB1" d="M769.557 364.952C770.964 365.372 771.502 365.356 772.463 366.431C772.328 369.735 768.685 372.189 765.999 374.685C764.635 373.971 763.931 372.444 763.063 371.077C765.208 369.014 767.373 366.973 769.557 364.952Z"/><path fill="#354DB1" d="M778.657 288.069C778.948 288.206 779.2 288.646 779.437 288.958C779.65 291.742 780.172 295.567 778.658 297.976C778.193 298.717 776.757 298.712 775.637 298.923C773.978 296.985 774.392 291.954 775.339 289.676C775.934 288.244 777.242 288.369 778.657 288.069Z"/><path fill="#354DB1" d="M764.792 230.832C766.998 232.262 771.007 237.187 770.677 240.057L768.85 241.458L767.755 241.232C766.148 239.274 763.148 235.94 762.99 233.334C762.947 232.615 764.18 231.531 764.792 230.832Z"/><path fill="#354DB1" d="M774.618 327.506C776.948 327.55 777.025 327.152 778.544 328.257C779.531 330.6 779.049 334.457 779.042 337.153C776.602 337.37 776.409 337.717 774.902 336.55C773.984 334.139 774.548 330.236 774.618 327.506Z"/><path fill="#354DB1" d="M774.598 308.098C776.313 308.188 777.492 308.022 778.798 309.063C779.961 311.287 779.317 314.743 779.135 317.437C777.497 317.543 776.506 317.825 775.194 316.908C773.912 314.52 774.512 311.106 774.598 308.098Z"/><path fill="#354DB1" d="M703.132 377.537C706.034 377.493 709.343 376.716 711.736 377.854C712.897 379.507 712.479 379.486 712.498 381.975C709.55 381.946 706.748 382.704 704.192 381.64C702.863 379.981 703.303 380.149 703.132 377.537Z"/><path fill="#354DB1" d="M746.747 222.672C749.161 222.754 753.146 222.441 754.833 223.591C755.591 225.63 755.211 225.491 754.77 228.005C752.014 227.668 749.36 228.175 747.177 226.977C746.193 225.2 746.605 225.115 746.747 222.672Z"/><path fill="#354DB1" d="M386.672 376.524C389.118 376.78 391.931 376.361 393.923 377.437C395.054 379.34 394.614 379.353 394.529 382.02C392.311 381.96 388.871 382.181 387.149 381.084C386.137 379.148 386.55 379.092 386.672 376.524Z"/><path fill="#F8F7DA" d="M717.089 485.21C718.861 485.065 720.71 484.676 722.204 485.488C723.266 487.074 722.831 489.903 722.751 491.968L716.517 492.014C716.787 489.838 716.92 487.415 717.089 485.21Z"/><path fill="#354DB1" d="M351.299 243.684L353.196 244.209C354.715 246.436 354.301 252.911 352.662 254.92C351.588 254.664 350.433 254.581 350.008 253.798C348.703 251.397 350.357 246.133 351.299 243.684Z"/><path fill="#F8F7DA" d="M441.866 422.408L442.145 421.67C444.696 423.821 447.62 420.503 448.064 424.83C448.334 427.454 447.227 428.705 445.032 429.49C441.344 428.325 441.891 425.692 441.866 422.408Z"/><path fill="#354DB1" d="M371.475 374.396C373.529 374.816 376.214 375.066 377.647 376.424C378.34 378.116 377.803 379.351 377.387 381.189C375.128 380.709 372.361 380.688 370.992 379.292C370.375 377.648 371.023 376.184 371.475 374.396Z"/><path fill="#354DB1" d="M364.003 228.971C365.255 229.865 365.478 229.81 366.021 231.185C365.272 233.512 362.27 235.998 360.388 237.885C358.486 236.602 357.939 236.645 357.997 234.501C359.072 232.329 361.952 230.536 364.003 228.971Z"/><path fill="#F8F7DA" d="M716.521 508.427C718.485 508.407 720.67 508.141 722.349 509.017C723.411 510.502 723.186 512.398 723.218 514.297L716.756 514.492L716.521 508.427Z"/><path fill="#354DB1" d="M774.259 347.561C775.206 347.579 776.831 347.47 777.391 348.02C778.978 349.577 778.294 354.514 778.172 356.867L773.904 356.226C773.987 353.337 774.105 350.448 774.259 347.561Z"/><path fill="#F9F7F7" d="M586.753 428.71C589.136 429.174 588.9 428.719 590.088 430.169C590.073 431.434 590.064 432.698 590.062 433.963C588.472 433.935 588.251 433.948 586.714 433.609C585.645 432.009 586.068 431.649 586.088 429.272L586.753 428.71Z"/><path fill="#F9F7F7" d="M416.598 494.126C418.527 493.823 418.776 493.445 420.29 494.088C420.806 495.574 420.596 496.47 420.466 498.031L419.188 498.062C416.327 497.66 416.744 497.424 416.195 494.984L416.598 494.126Z"/><path fill="#2A2A6C" d="M608.447 478.74C610.408 478.596 613.066 478.241 614.573 479.31C612.325 479.517 610.294 479.87 608.447 478.74Z"/><path fill="#F9F7F7" d="M836.584 671.357C841.69 670.603 846.543 671.422 850.771 674.558C854.711 677.539 857.273 681.991 857.87 686.896C858.491 691.879 857.079 696.902 853.953 700.833C849.677 706.235 841.641 708.96 835.063 706.766C827.565 705.384 821.629 700.359 820.034 692.742C819.076 688.073 820.035 683.215 822.695 679.26C826.17 674.148 830.825 672.43 836.584 671.357Z"/><defs><linearGradient id="gradient_4" gradientUnits="userSpaceOnUse" x1="837.05157" y1="688.93658" x2="820.38782" y2="686.93298"><stop offset="0" stop-color="black"/><stop offset="1" stop-color="#252628"/></linearGradient></defs><path fill="url(#gradient_4)" d="M835.063 706.766C827.565 705.384 821.629 700.359 820.034 692.742C819.076 688.073 820.035 683.215 822.695 679.26C826.17 674.148 830.825 672.43 836.584 671.357L837.479 672.747C829.844 674.096 824.132 680.508 823.671 688.248C823.21 695.988 828.121 703.032 835.542 705.278L835.063 706.766Z"/><path fill="#0F0D0E" d="M836.584 671.357C841.69 670.603 846.543 671.422 850.771 674.558C854.711 677.539 857.273 681.991 857.87 686.896C858.491 691.879 857.079 696.902 853.953 700.833C849.677 706.235 841.641 708.96 835.063 706.766L835.542 705.278C842.176 707.285 849.36 705 853.616 699.53C857.871 694.06 858.319 686.535 854.743 680.598C851.166 674.662 844.304 671.541 837.479 672.747L836.584 671.357Z"/><path fill="#0F0D0E" d="M835.739 682.879L836.238 683.538C834.933 685.788 833.084 688.973 834.28 691.602C834.955 693.125 836.215 694.312 837.775 694.897C839.638 695.628 841.719 695.57 843.539 694.736C848.325 692.544 846.934 687.819 844.904 684.183L844.589 683.632L845.014 683.21L845.98 683.665C850.141 689.383 848.945 695.941 841.141 696.405C838.554 696.559 836.024 695.609 834.177 693.79C830.726 690.404 832.84 685.769 835.739 682.879Z"/><path fill="#2A2D31" d="M840.007 678.79L840.639 679.306C841.307 681.326 841.006 683.512 840.916 685.691L840.233 685.072C839.57 682.749 839.85 681.196 840.007 678.79Z"/><path fill="#FEAEB5" d="M678.572 694.892C672.258 694.69 666.823 687.811 669.876 681.926C673.192 676.508 681.638 676.132 687.212 676.376C693.645 676.657 700.857 675.19 705.333 680.409C709.139 686.997 706.972 691.328 700.549 694.906C694.648 695.023 684.246 695.355 678.572 694.892Z"/><defs><linearGradient id="gradient_5" gradientUnits="userSpaceOnUse" x1="702.08063" y1="680.07947" x2="670.17157" y2="687.26215"><stop offset="0" stop-color="#100D0A"/><stop offset="1" stop-color="#212529"/></linearGradient></defs><path fill="url(#gradient_5)" d="M678.572 694.892C672.258 694.69 666.823 687.811 669.876 681.926C673.192 676.508 681.638 676.132 687.212 676.376C693.645 676.657 700.857 675.19 705.333 680.409L704.54 680.946C701.276 677.861 698.46 677.75 694.039 677.805C688.878 677.87 679.439 676.533 675.692 680.868C671.955 685.193 674.112 691.678 679.327 693.795C678.893 694.292 678.687 694.362 678.572 694.892Z"/><path fill="#0F0D0E" d="M705.333 680.409C709.139 686.997 706.972 691.328 700.549 694.906C694.648 695.023 684.246 695.355 678.572 694.892C678.687 694.362 678.893 694.292 679.327 693.795C687.963 694.49 712.712 696.863 704.54 680.946L705.333 680.409Z"/><path fill="#2A2D31" d="M631.947 676.671C638.875 676.512 645.829 676.434 652.732 677.075C662.048 682.917 660.738 693.703 649.625 695.008C647.458 695.013 642.476 694.776 639.864 695.059C629.952 696.13 614.737 693.167 623.509 680.078C625.281 677.433 628.676 676.978 631.947 676.671Z"/><path fill="#FECD7B" d="M630.811 678.089C637.977 677.962 645.146 677.969 652.312 678.109C659.482 682.648 659.883 689.093 652.321 693.503C647.93 694.303 638.234 694.423 633.761 693.957C624.293 692.973 622.733 683.228 630.811 678.089Z"/><path fill="#FECD7B" d="M727.398 694.946C713.701 694.469 713.805 677.301 727.475 676.758C734.677 676.471 746.388 675.197 752.183 679.503C758.903 688.257 753.764 694.297 743.72 695.036C738.514 695.419 732.658 695.036 727.398 694.946Z"/><defs><linearGradient id="gradient_6" gradientUnits="userSpaceOnUse" x1="749.54486" y1="675.09814" x2="718.64355" y2="688.82324"><stop offset="0" stop-color="#030300"/><stop offset="1" stop-color="#292B2E"/></linearGradient></defs><path fill="url(#gradient_6)" d="M727.398 694.946C713.701 694.469 713.805 677.301 727.475 676.758C734.677 676.471 746.388 675.197 752.183 679.503L751.048 679.975C746.649 676.95 725.885 675.915 722.773 681.934C720.567 686.202 722.891 691.939 727.515 693.818L727.219 694.641L727.398 694.946Z"/><path fill="#0F0D0E" d="M752.183 679.503C758.903 688.257 753.764 694.297 743.72 695.036C738.514 695.419 732.658 695.036 727.398 694.946L727.219 694.641L727.515 693.818C732.667 693.974 738.271 694.349 743.375 693.967C752.511 693.282 757.676 688.037 751.048 679.975L752.183 679.503Z"/><path fill="#FEAEB5" d="M775.083 694.907C774.394 694.832 773.708 694.736 773.025 694.619C764.328 693.062 762.165 681.925 770.365 678.239C775.584 675.893 792.577 675.748 797.734 677.627C801.226 680.498 801.626 681.141 803.032 685.391L803.244 686.018C802.183 689.3 801.341 691.893 798.018 693.61C793.041 696.182 781.103 695.097 775.083 694.907Z"/><defs><linearGradient id="gradient_7" gradientUnits="userSpaceOnUse" x1="797.49316" y1="679.31287" x2="766.43524" y2="687.76196"><stop offset="0" stop-color="#080603"/><stop offset="1" stop-color="#252A2E"/></linearGradient></defs><path fill="url(#gradient_7)" d="M775.083 694.907C774.394 694.832 773.708 694.736 773.025 694.619C764.328 693.062 762.165 681.925 770.365 678.239C775.584 675.893 792.577 675.748 797.734 677.627L797.37 678.563C793.769 677.631 776.913 677.261 773.616 679.116C768.067 682.24 769.283 692.08 776.591 693.903L775.083 694.907Z"/><path fill="#0F0D0E" d="M797.734 677.627C801.226 680.498 801.626 681.141 803.032 685.391L803.244 686.018C802.183 689.3 801.341 691.893 798.018 693.61C793.041 696.182 781.103 695.097 775.083 694.907L776.591 693.903C782.96 694.151 793.751 695.093 799.113 691.464C804.673 687.701 801.027 682.164 797.37 678.563L797.734 677.627Z"/><path fill="#AAA1FB" d="M283.629 732.998L732.43 733.039L733.078 734.447C732.808 738.924 733.665 744.234 727.267 744.371C712.271 744.691 697.231 744.543 682.226 744.543L592.629 744.543L312.898 744.554C308.451 744.555 289.438 745.27 285.438 743.378C283.369 742.4 283.639 735.686 283.629 732.998Z"/><path fill="#BFBDC2" d="M732.43 733.039C739.257 733.035 787.62 732.491 790.44 733.762C785.253 734.982 772.246 734.523 766.257 734.491L733.078 734.447L732.43 733.039Z"/><path fill="#BFBDC2" d="M225.871 733.225C237.94 731.627 254.451 733.986 266.915 732.994C269.555 732.784 281.266 732.583 282.734 734C277.821 735.181 229.827 734.694 225.871 733.225Z"/><path fill="#0F0D0E" fill-opacity="0.98039216" d="M965.754 923.593C972.599 924.917 979.325 926.583 986.148 927.922C974.83 928.295 962.687 927.968 951.285 927.958L897.405 927.969C904.446 926.389 916.381 927.03 923.946 926.969C939.257 926.844 954.945 927.534 970.225 926.729C968.719 925.706 967.229 924.66 965.754 923.593Z"/></svg>